<svg xmlns="http://www.w3.org/2000/svg" viewBox="0 0 406.73 507.39"><defs><style>.cls-1{fill:#2d2a26;}.cls-2{fill:#d7282f;}.cls-3{fill:#fff;}.cls-4{fill:#d29e0e;}</style></defs><g id="Layer_2" data-name="Layer 2"><g id="Vanlig"><g id="Logo-PMS-hoyde-Bergenkommune"><path id="Bergen_kommune" data-name="Bergen kommune" class="cls-1" d="M55.53,377.85c-.12-3.13-.26-6.27-.4-9.4,1.27.1,2.57.18,3.89.26s2.62.11,3.89.11,2.57-.06,3.9-.19,2.61-.18,3.88-.18a35.07,35.07,0,0,1,6,.48,14.74,14.74,0,0,1,4.92,1.69,9.2,9.2,0,0,1,3.38,3.26A9.78,9.78,0,0,1,86.19,379a10.87,10.87,0,0,1-3.42,8.52,19.34,19.34,0,0,1-8.92,4.33V392q6.54.3,10.32,3.16T88,404.36a13.07,13.07,0,0,1-1.69,6.9,13.59,13.59,0,0,1-4.4,4.52,18,18,0,0,1-6,2.42,30.71,30.71,0,0,1-6.5.7c-1.17,0-2.36,0-3.56-.07s-2.39-.08-3.56-.08H58.69c-1.2,0-2.39.05-3.56.15.14-3.13.28-6.26.4-9.36s.18-6.28.18-9.52V387.4c0-3.23-.05-6.42-.18-9.55M70.8,390.48a13.77,13.77,0,0,0,4.52-1.73,9.22,9.22,0,0,0,3.19-3.23,9.66,9.66,0,0,0,1.22-5.1,9.18,9.18,0,0,0-1.1-4.81,8.1,8.1,0,0,0-2.79-2.79A10.75,10.75,0,0,0,72,371.5a27.79,27.79,0,0,0-4.26-.33c-1.27,0-2.35,0-3.23.11s-1.67.16-2.35.25q-.15,3.53-.3,7t-.14,7V391h4a25.72,25.72,0,0,0,5.1-.51m-8.92,18.14q.15,3.67.3,7.41c.93.1,2,.19,3.3.26s2.57.11,3.89.11a12.78,12.78,0,0,0,4.52-.81,10.56,10.56,0,0,0,3.78-2.38,11.38,11.38,0,0,0,2.57-3.9,13.58,13.58,0,0,0,1-5.25,10.42,10.42,0,0,0-1.13-5.17,8,8,0,0,0-3.27-3.16,15.77,15.77,0,0,0-5.1-1.58,46.25,46.25,0,0,0-6.65-.44h-3.3v7.49c0,2.49,0,5,.14,7.42m44.28-30.77q.18,4.69.18,9.54V400q0,4.86-.18,9.52c-.12,3.1-.25,6.23-.4,9.36q3.38-.15,6.68-.15h13.33c2.18,0,4.36.05,6.57.15v-4.19a31.61,31.61,0,0,1-4.15.55c-1.59.13-3.28.22-5.06.29s-3.62.12-5.48.12h-5.14c0-.93-.08-2.3-.11-4.11s0-4.12,0-6.91v-7.27c0-.78,0-1.43,0-1.94s0-1,0-1.43l3.56,0,4.77.07c1.7,0,3.38.09,5.07.19s3.17.22,4.45.36v-4.48c-1.08.1-2.22.19-3.42.26l-3.93.22c-1.42.08-3,.14-4.7.19s-3.64.07-5.8.07c0-.93,0-2.3,0-4.11s0-3.67,0-5.59,0-3.42.11-4.84.13-2.91.18-4.48q3.6,0,6.17.11c1.71.08,3.29.16,4.74.26l4.11.29c1.29.1,2.73.2,4.29.29v-4.4c-2.2.1-4.38.18-6.53.26s-4.33.11-6.54.11-4.39,0-6.57-.11-4.37-.16-6.57-.26c.15,3.13.28,6.27.4,9.4m45.1.11q-.18-4.66-.4-9.51c1.42.1,2.81.18,4.19.26s2.76.11,4.18.11,2.81-.06,4.19-.19,2.76-.18,4.18-.18a27.82,27.82,0,0,1,5.87.59,14.44,14.44,0,0,1,4.89,1.94,9.81,9.81,0,0,1,3.3,3.56,11.32,11.32,0,0,1,1.21,5.51,11.17,11.17,0,0,1-1.58,6.06,14.75,14.75,0,0,1-3.85,4.19,18.68,18.68,0,0,1-4.88,2.56,24.38,24.38,0,0,1-4.74,1.22c.59.73,1.4,1.76,2.42,3.08s2.18,2.78,3.46,4.37,2.59,3.26,4,5,2.69,3.41,4,5,2.47,3.05,3.6,4.37,2,2.32,2.71,3h-8.66l-3.34-4.63c-1.5-2-3.15-4.26-5-6.61s-3.66-4.68-5.54-7-3.62-4.3-5.18-5.91h-2.79v5.36q0,4.84.18,9.55t.41,9.25h-7.2q.22-4.56.4-9.25c.12-3.14.19-6.32.19-9.55V387.47c0-3.23-.07-6.4-.19-9.51m8.45,14c.8.05,1.7.07,2.68.07a23.32,23.32,0,0,0,4.73-.51,13.64,13.64,0,0,0,4.52-1.8,10.71,10.71,0,0,0,3.41-3.45,10.11,10.11,0,0,0,1.36-5.47,9.5,9.5,0,0,0-1.06-4.74,8.52,8.52,0,0,0-2.76-3,10.54,10.54,0,0,0-3.67-1.5,19.32,19.32,0,0,0-3.89-.4c-1.71,0-3.13,0-4.26.11s-2.08.16-2.86.25c-.1,2.7-.2,5.36-.29,8s-.15,5.29-.15,7.93v4.18a14.63,14.63,0,0,0,2.24.3m78.23-17.19a20.15,20.15,0,0,1,2.76,2.65h.88l1.69-5.66c-.89-.44-1.89-.9-3-1.39a36,36,0,0,0-3.94-1.4,35.6,35.6,0,0,0-5.14-1.06,48.4,48.4,0,0,0-6.64-.41,37.21,37.21,0,0,0-11.79,1.77,25,25,0,0,0-9.07,5.14,23,23,0,0,0-5.8,8.26,28.45,28.45,0,0,0-2,11.12,30.36,30.36,0,0,0,2,11.39,21.89,21.89,0,0,0,5.65,8.22,23.1,23.1,0,0,0,8.93,4.89,40.92,40.92,0,0,0,11.78,1.57,36.25,36.25,0,0,0,4.74-.33c1.74-.22,3.47-.46,5.21-.73a44.86,44.86,0,0,0,4.92-1c1.54-.42,2.83-.82,3.86-1.21,0-1,0-2,0-3s0-2,0-3q0-6,.07-9.58c0-2.43.12-4.2.22-5.33h-6.69c.1,1.57.19,3.21.26,4.92s.11,3.43.11,5.15q0,2.26,0,4.47c0,1.47-.07,2.94-.11,4.41a11.19,11.19,0,0,1-2.32,1,25.08,25.08,0,0,1-2.93.73,31,31,0,0,1-3.27.44c-1.13.1-2.21.15-3.23.15a24.8,24.8,0,0,1-9.22-1.62,18.94,18.94,0,0,1-6.9-4.59,19.46,19.46,0,0,1-4.3-7.31,33.56,33.56,0,0,1,.18-20.22,20.27,20.27,0,0,1,4.56-7.35,18.09,18.09,0,0,1,6.83-4.29,25.15,25.15,0,0,1,8.48-1.4,21.1,21.1,0,0,1,5.25.63,22.7,22.7,0,0,1,4.48,1.61,20.57,20.57,0,0,1,3.67,2.31m25.37,3.09q.18,4.69.18,9.54V400q0,4.86-.18,9.52c-.12,3.1-.26,6.23-.4,9.36,2.25-.1,4.47-.15,6.68-.15h13.33c2.17,0,4.37.05,6.57.15v-4.19a31.61,31.61,0,0,1-4.15.55c-1.59.13-3.28.22-5.07.29s-3.61.12-5.47.12h-5.14c-.05-.93-.08-2.3-.11-4.11s0-4.12,0-6.91v-7.27c0-.78,0-1.43,0-1.94s0-1,0-1.43l3.56,0,4.78.07c1.68,0,3.37.09,5.06.19s3.17.22,4.44.36v-4.48c-1.08.1-2.21.19-3.41.26l-3.93.22c-1.42.08-3,.14-4.7.19s-3.65.07-5.8.07c0-.93,0-2.3,0-4.11s0-3.67,0-5.59,0-3.42.11-4.84.13-2.91.18-4.48c2.4,0,4.45,0,6.17.11s3.29.16,4.73.26l4.12.29c1.29.1,2.73.2,4.29.29v-4.4c-2.2.1-4.38.18-6.53.26s-4.34.11-6.54.11-4.39,0-6.57-.11-4.37-.16-6.57-.26c.14,3.13.28,6.27.4,9.4m68.32,22q9.54,10.25,18,20h1v-2.42c0-1.18,0-2.56,0-4.15s-.05-3.3-.07-5.14-.05-3.66-.07-5.47,0-3.55,0-5.21v-4.41c0-1.42,0-3.3.15-5.65s.21-4.75.33-7.2.24-4.75.36-6.91.23-3.76.33-4.84h-4.84q.36,6.46.47,13.77t.12,15v10q-3.39-3.39-7.9-8.19l-9.55-10.21q-5-5.4-10.13-10.95l-9.58-10.39H309q.15,2.5.19,7.57t0,12.11c0,1.62,0,3.46-.07,5.51s-.11,4.16-.18,6.32-.18,4.31-.3,6.46-.23,4.15-.33,6-.21,3.41-.33,4.73-.23,2.23-.33,2.72H313c-.05-.39-.1-1.14-.15-2.24s-.1-2.39-.15-3.86-.1-3.06-.14-4.77-.09-3.4-.11-5.07-.05-3.25-.08-4.77,0-2.79,0-3.82c0-4,0-7.09.07-9.4s.1-4.13.15-5.51q9.54,10.14,19.09,20.38M.4,497.19q-.18,4.69-.4,9.25H7.19c-.14-3-.28-6.12-.4-9.25s-.18-6.32-.18-9.55v-6.39c0-.29.12-.44.37-.44s.48.2.88.59q1.17,1.17,3.63,4.07C13.13,487.41,15,489.58,17,492s4.11,4.93,6.24,7.52,4.08,4.9,5.84,6.91h8.45q-6.26-7-12.31-13.92t-12-13.62q2-2.28,5-5.32t6.24-6.21q3.27-3.15,6.51-6.16t5.8-5.22H30.18q-2.57,2.94-5.36,6.06t-5.66,6.13q-2.85,3-5.69,5.8t-5.39,5c-.5.43-.84.66-1,.66s-.44-.2-.44-.59v-4q0-4.85.18-9.51c.12-3.11.26-6.28.4-9.51H0q.22,4.85.4,9.51c.12,3.11.19,6.28.19,9.51v12.63c0,3.23-.07,6.41-.19,9.55m45.48-27a23.24,23.24,0,0,1,5.65-8.26,24.39,24.39,0,0,1,8.71-5.14,35.85,35.85,0,0,1,22.25,0,24.34,24.34,0,0,1,8.7,5.14,23.24,23.24,0,0,1,5.65,8.26,31.65,31.65,0,0,1,0,22.25,22.64,22.64,0,0,1-14.35,13.29,35.92,35.92,0,0,1-11.17,1.65,35.57,35.57,0,0,1-11.08-1.65,22.62,22.62,0,0,1-14.36-13.29,31.65,31.65,0,0,1,0-22.25m44.24.59a20.1,20.1,0,0,0-4.29-7.34,17.24,17.24,0,0,0-6.46-4.31,23,23,0,0,0-8.05-1.39,22.65,22.65,0,0,0-8,1.39,17.08,17.08,0,0,0-6.46,4.31,20,20,0,0,0-4.3,7.34,36.8,36.8,0,0,0,0,21.07,20,20,0,0,0,4.3,7.34,16.94,16.94,0,0,0,6.46,4.3,22.43,22.43,0,0,0,8,1.4,22.73,22.73,0,0,0,8.05-1.4,17.09,17.09,0,0,0,6.46-4.3,20.1,20.1,0,0,0,4.29-7.34,36.8,36.8,0,0,0,0-21.07m38.58,4.51q-5.19-9.84-10.25-20.27H117.2q-.58,5.88-1.39,12.38t-1.76,13.18q-1,6.69-2,13.29t-2,12.56h5.14q0-2.94.37-7.53c.24-3.06.54-6.31.88-9.77s.72-6.95,1.14-10.5l1.14-9.87h.14q4.85,9.69,9.66,19t9.21,18.54h.67q4.4-10,9.28-19.13t10-18.39h.14q1.17,9.54,2,18.72t1.61,18.95h6.9c-.58-4.07-1.13-8.17-1.61-12.3s-1-8.32-1.47-12.56-1-8.54-1.43-12.92-1-8.92-1.51-13.63h-.95q-1.84,3.39-4,7.27t-4.29,7.94q-2.18,4-4.26,8t-3.93,7.31c-1.23,2.25-2.31,4.25-3.23,6s-1.65,3.08-2.13,4q-5.66-10.37-10.83-20.2m72.51,0Q196,465.46,191,455h-1.25q-.6,5.88-1.4,12.38t-1.76,13.18q-1,6.69-2,13.29t-2,12.56h5.13c0-2,.13-4.47.37-7.53s.54-6.31.88-9.77.73-6.95,1.14-10.5.8-6.84,1.14-9.87h.15q4.84,9.69,9.65,19t9.22,18.54h.66q4.41-10,9.29-19.13t10-18.39h.15q1.17,9.54,2,18.72t1.61,18.95h6.91q-.89-6.1-1.62-12.3t-1.47-12.56q-.74-6.34-1.43-12.92T234.8,455h-1q-1.84,3.39-4,7.27t-4.29,7.94c-1.45,2.69-2.86,5.35-4.26,8s-2.7,5.06-3.93,7.31-2.3,4.25-3.23,6-1.64,3.08-2.13,4q-5.65-10.37-10.83-20.2m93.45-11.53c0,3.78.07,9.13.07,16.09,0,1.51,0,3.18-.07,5a39.9,39.9,0,0,1-.52,5.43,24.87,24.87,0,0,1-1.43,5.22,14.16,14.16,0,0,1-2.75,4.4,13,13,0,0,1-4.52,3.09,17.37,17.37,0,0,1-6.79,1.17,20.81,20.81,0,0,1-6.9-1,12.93,12.93,0,0,1-4.63-2.72,12.12,12.12,0,0,1-2.83-4,21.68,21.68,0,0,1-1.43-4.85,35.51,35.51,0,0,1-.51-5.22c-.05-1.78-.08-3.51-.08-5.17,0-2.74,0-5.39.08-7.93s.12-4.92.22-7.13.19-4.17.29-5.91.2-3.14.29-4.22h-7q.15,3.3.29,8.08t.15,10.94c0,1.86-.06,3.68-.19,5.47s-.18,3.83-.18,6.13q0,10.8,5,15.79t16,5a25.69,25.69,0,0,0,8.85-1.4,16.73,16.73,0,0,0,6.5-4.11,18.6,18.6,0,0,0,4.08-6.6,26.72,26.72,0,0,0,1.5-8.81q.07-4.05.22-8.34c.1-2.87.2-5.65.3-8.37s.22-5.26.36-7.64.3-4.41.44-6.13h-5.21a76.56,76.56,0,0,1,.37,7.78m46.22,23.61q9.54,10.25,18,20h1V505c0-1.18,0-2.56,0-4.15s-.05-3.3-.07-5.14-.05-3.66-.08-5.47,0-3.55,0-5.21v-4.41c0-1.42,0-3.31.14-5.65s.21-4.75.34-7.2.24-4.75.36-6.91.23-3.76.33-4.84H356q.36,6.47.47,13.77t.11,15v10q-3.37-3.37-7.89-8.19t-9.55-10.2q-5-5.4-10.13-10.95L319.44,455h-1.18q.15,2.5.19,7.57t0,12.11c0,1.62,0,3.46-.07,5.51s-.11,4.16-.19,6.32-.17,4.31-.29,6.46-.23,4.15-.33,6-.21,3.41-.33,4.73-.23,2.23-.33,2.72h5.29c-.05-.39-.1-1.14-.15-2.24s-.1-2.39-.15-3.86-.09-3.06-.14-4.77-.09-3.4-.11-5.07-.05-3.25-.08-4.77,0-2.79,0-3.82c0-4,0-7.09.07-9.4s.09-4.13.15-5.51q9.54,10.14,19.09,20.38m39.67-22c.12,3.13.19,6.31.19,9.54v12.64c0,3.23-.07,6.4-.19,9.51s-.25,6.23-.4,9.36q3.38-.15,6.68-.15h13.33q3.27,0,6.57.15v-4.19a31.85,31.85,0,0,1-4.15.55c-1.59.13-3.28.22-5.06.29s-3.62.12-5.48.12H386.9c0-.93-.08-2.3-.11-4.11s0-4.12,0-6.91v-7.27c0-.78,0-1.43,0-1.94s0-1,0-1.43l3.56,0,4.78.07c1.69,0,3.37.09,5.06.19s3.17.22,4.45.36v-4.48c-1.08.1-2.22.19-3.42.26s-2.51.15-3.93.22-3,.14-4.7.19-3.64.07-5.8.07c0-.93,0-2.3,0-4.11s0-3.67,0-5.59,0-3.42.11-4.84.13-2.91.18-4.48q3.6,0,6.17.11c1.71.08,3.29.16,4.74.26l4.11.29c1.3.1,2.73.2,4.3.29V456c-2.21.1-4.39.18-6.54.26s-4.33.11-6.53.11-4.4,0-6.58-.11-4.37-.16-6.57-.26c.15,3.13.28,6.27.4,9.4"/><circle id="Bakgrunn" class="cls-2" cx="203.37" cy="147" r="113"/><path id="Hvit" class="cls-3" d="M203.37,262a114.68,114.68,0,0,1-96.26-52.15l10.26-12.12V147.2l-2.66-1.53a1,1,0,0,1-.48-.64,1,1,0,0,1,.15-.78l6-8.95v-4a.69.69,0,0,1,0-.25l.5-1.27-.69-.44a4,4,0,0,1-1-5.76l.19-1.6h0V109a4,4,0,0,1,4-4h2V83.59l-4-4V68h41V79.59l-4,4V101h20V76.55a3.72,3.72,0,0,0-1.1-2.65L175,71.59a1.74,1.74,0,0,0-.39-1.8l-7.08-7.08a.42.42,0,0,1-.12-.3.41.41,0,0,1,.29-.39l.71-.21V50h11V45h9v5h10V44h11v6h10V45h9v5h11V61.81l.7.21a.42.42,0,0,1,.3.39.43.43,0,0,1-.13.3l-7.08,7.08a1.7,1.7,0,0,0-.38,1.79l-2.32,2.32a3.82,3.82,0,0,0-1.09,2.65V101h20V83.59l-4-4V68h41V79.59l-4,4V105h2a4,4,0,0,1,4,4v14.35l.19.27a3.91,3.91,0,0,1,.81,2.38,4,4,0,0,1-1.86,3.36l-.69.45.5,1.26a.7.7,0,0,1,.05.25v4l6,8.95a1,1,0,0,1,.15.78,1,1,0,0,1-.48.64l-2.65,1.53v50.53l9.69,11.46A114.62,114.62,0,0,1,203.37,262Z"/><path id="Fjell" class="cls-4" d="M203.37,261a113.79,113.79,0,0,0,90.73-45c-5.08-3-13.36-5-22.73-5-12.66,0-21.42,3.16-26.87,7.12-4.28-2.82-11.69-4.69-20.13-4.69-7.44,0-14.08,1.45-18.49,3.73-5.37-3.24-14.46-4.81-26.07-2.25a65.37,65.37,0,0,0-8,2.31c-7.42-2.55-19.63-4.22-33.44-4.22a135.75,135.75,0,0,0-26.25,2.33A113.84,113.84,0,0,0,203.37,261Zm-2-3a10.07,10.07,0,0,1,1-3c-2,0-4,3-4,3-1-2,1-6,1-6-3,1-5,5-5,5-1-3,2-7,2-7-3,1-7,6-7,6-1-3,4-10,4-10-5,2-9,9-9,9,0-5,4-11,4-11a29.14,29.14,0,0,0-9,10c0-5,5.62-11.83,5.62-11.83-5.38,1.17-10.62,9.83-10.62,9.83,0-6,6-12,6-12-4,1-10,9-10,9,0-5,6-11,6-11-6,2-12,10-12,10,0-5,6-10,6-10-5,1-11,8-11,8,0-3,5.31-8.1,5.31-8.1-4.68.91-11.31,7.1-11.31,7.1,0-2,5-7,5-7-4,0-10,4-10,4-2-2,3-4,3-4a35.49,35.49,0,0,0-9.26,1.3c7.11-5.2,20-6.84,33.63-3.5,14.72,3.6,26,11.95,29,20.53C204.75,256.33,201.37,259,201.37,258ZM190,239.76l.54.35-.2-.11ZM237.37,253c-2-1,0-4,0-4-3,0-5,4-5,4-2-2,0-6,0-6-3,1-5,7-5,7-1-3,1-9,1-9-3,1-7,9-7,9-1-3,4-11,4-11-5,1-8,10-8,10-1-3,3-11,3-11-4,2-6,8-6,8-1-4,3-10,3-10-5,2-8,8-8,8-1-4,3-9,3-9-4,1-7,6-7,6-1-2,1-6,1-6a6.83,6.83,0,0,0-4,4c-2-2,0-5,0-5a14.09,14.09,0,0,0-5,3,1.39,1.39,0,0,1,0-2c-1-1-3.31-.39-3.31-.39,5.47-3.57,15.73-4.33,26.64-1.41,9.09,2.44,16.52,6.87,20.44,11.65A9,9,0,0,1,237.37,253Zm27.73-13.85h0c-1.27-1.7-4.72-2.15-4.72-2.15a12,12,0,0,1,1,4.24l-.22.13c-1.29-2.78-4.74-5.37-4.74-5.37,2,3,1,7,1,7-2-5-9-9-9-9,2,3,2,9,2,9-1-6-8-8-8-8,3,3,3,9,3,9-2-4-7-8-7-8a13.38,13.38,0,0,1,1,5c-1-2-4-4-4-4a4.83,4.83,0,0,1,0,4,6.93,6.93,0,0,0-3-4,1,1,0,0,1-1,1c-2,0-1.16-2.57-1.16-2.57,3.55-2.08,9.24-3.43,15.66-3.43,9.69,0,17.73,3.09,19.23,7.13ZM271.37,214a51.17,51.17,0,0,1,16.45,2.46c-1.54,3.46-9.45,10.54-9.45,10.54-1-3,3-8,3-8-4,1-10,10-10,10-1-4,6-12,6-12-6,2-13,13-13,13-1-4,7-13,7-13-6,3-12,12-12,12,0-4,5-11,5-11-5,2-10,11-10,11-1-3,3-9,3-9-3,2-7,9-7,9-1-3,2-8,2-8-4,1-7,8-7,8-2-1,0-4,0-4-1.32,0-3.71,1.51-4.76,2.69C242.11,223.18,250.66,214,271.37,214Zm-47,2.43c7.91,0,14.13,1.72,17.68,3.72a15.13,15.13,0,0,0-4.41,6.85,8.22,8.22,0,0,0-2.27-6,9.36,9.36,0,0,1-1,7,11.6,11.6,0,0,0-4-9,17.6,17.6,0,0,1,.15,10.55c-1.09-7.68-5.15-10.55-5.15-10.55a20.87,20.87,0,0,1,.27,11c-.4-5.65-4.27-11-4.27-11,.78,3.14.33,8.74.1,11-.46-4.65-4.1-9-4.1-9,1,3,0,8,0,8a16.85,16.85,0,0,0-4-8c.85,1.71-.49,4.15-.89,4.82a20.64,20.64,0,0,0-2.77-5.36,10.83,10.83,0,0,0-1.13-1.24A41.19,41.19,0,0,1,224.37,216.43Zm-43.92,1.41a58.13,58.13,0,0,1,12.26-1.41c8.56,0,12,3.89,13.66,5.57a15.78,15.78,0,0,1,3.93,8.2c-2.29-4.64-8.93-7.2-8.93-7.2a10.82,10.82,0,0,1,3,7c-3-6-12-10-12-10a17.28,17.28,0,0,1,5.83,10.19c-2.16-4.8-10.83-9.19-10.83-9.19a17.86,17.86,0,0,1,6,10c-3-5-10-8-10-8a20.11,20.11,0,0,1,6.32,10.25c-5.58-7.43-11-9.31-11-9.31,3.15,2.15,5.22,6.79,6.11,9.14-5.67-7.14-11.41-8.08-11.41-8.08,4,3,6.88,9.14,6.88,9.14-4.11-4.86-11.44-7.85-11.44-7.85,3.45,2.28,5.56,6.71,5.56,6.71-3-3-10.6-5-10.6-5,2.4,1.05,4.6,5,4.6,5s-4.8-2-6.65-2.46-3.83.85-3.8.59a4.92,4.92,0,0,1,1.33-2.71,26.77,26.77,0,0,1,8.41-6.15A54.9,54.9,0,0,1,180.45,217.84Zm-57.3-1.11c4.49-.45,9.58-.73,15.22-.73,12.62,0,22.49,1.39,29,3.05a39.11,39.11,0,0,0-6.79,4,9.55,9.55,0,0,1-.23-2,9.94,9.94,0,0,0-.91,2.94,19.4,19.4,0,0,0-2.09,2.05v-5a41.72,41.72,0,0,0-5,10c-1-5,1-11,1-11-3.89,3.88-5.52,12.69-5.61,13.21h0c-1.6-4.76.63-14.22.63-14.22-4,6-5,15-5,15-1-6,1-16,1-16-4,4-5,14-5,14-1-3,0-13,0-13-4,3-4,11-4,11-3-4-1-11-1-11-3,3-4.27,9.53-4.27,9.53a18.76,18.76,0,0,1-.14-9.08,15.59,15.59,0,0,0-3.32,6.51c-1.72-3.05-.27-7-.27-7-2,0-2,4-2,4S119.68,217.08,123.15,216.73Z"/><path id="Borg" class="cls-1" d="M199.37,143.5a2,2,0,0,1,2-2.05h.41v-.4a2,2,0,1,1,4.09,0v.4h.41a2.05,2.05,0,0,1,0,4.1h-.41v.4a2,2,0,1,1-4.09,0v-.4h-.41A2,2,0,0,1,199.37,143.5Zm16.43,22.78c0-.42.07-.85.07-1.28a12,12,0,0,0-24,0c0,.43,0,.86.06,1.28A11,11,0,0,0,183.37,177v37.25c1-.16,2-.29,3-.38V202h6a2,2,0,0,1,0,4c-.29,0-.69-.24-.93-.12a.21.21,0,0,0-.11.31,2.63,2.63,0,0,0,2,.81,3,3,0,0,0,2.18-5.05l3.82-.95-3.82-.95a3,3,0,0,0-2.18-5.05,2.63,2.63,0,0,0-2,.81.21.21,0,0,0,.11.31c.24.12.64-.12.93-.12a2,2,0,0,1,0,4h-6V182h6a2,2,0,0,1,0,4c-.29,0-.69-.24-.93-.12a.21.21,0,0,0-.11.31,2.63,2.63,0,0,0,2,.81,3,3,0,0,0,2.18-5.05l3.82-.95-3.82-.95a3,3,0,0,0-2.18-5.05,2.63,2.63,0,0,0-2,.81.21.21,0,0,0,.11.31c.24.12.64-.12.93-.12a2,2,0,0,1,0,4h-6v-3a8,8,0,0,1,6.26-7.81,13.11,13.11,0,0,1,2.24-.19v-4a9,9,0,0,1,7.5-8.86v59.35a21.9,21.9,0,0,1,3,1.38V156.14a9,9,0,0,1,7.5,8.86v4a13,13,0,0,1,2.23.19,8,8,0,0,1,6.27,7.81v3h-6a2,2,0,0,1,0-4c.28,0,.68.24.92.12a.21.21,0,0,0,.11-.31,2.62,2.62,0,0,0-2-.81,3,3,0,0,0-2.19,5.05l-3.81.95,3.81.95a3,3,0,0,0,2.19,5.05,2.62,2.62,0,0,0,2-.81.21.21,0,0,0-.11-.31c-.24-.12-.64.12-.92.12a2,2,0,0,1,0-4h6v18h-6a2,2,0,0,1,0-4c.28,0,.68.24.92.12a.21.21,0,0,0,.11-.31,2.62,2.62,0,0,0-2-.81,3,3,0,0,0-2.19,5.05l-3.81.95,3.81.95a3,3,0,0,0,2.19,5.05,2.62,2.62,0,0,0,2-.81.21.21,0,0,0-.11-.31c-.24-.12-.64.12-.92.12a2,2,0,0,1,0-4h6v11.51c1,0,2-.08,3-.08V177A11,11,0,0,0,215.8,166.28ZM284.37,181h2v-2l-9,1Zm-6,2,8,1v-2h-2Zm1-11h7v-2h-3Zm0-4h7v-2h-3Zm-1,29h8v-2h-4Zm0-4h8v-2h-4Zm-38.78-31.64,2.44-1.52a2.87,2.87,0,0,0,1.34-2.42V141a4,4,0,0,0-8,0v18A2.76,2.76,0,0,0,239.59,161.36ZM168.37,137a4,4,0,0,0-4,4v16.42a2.86,2.86,0,0,0,1.33,2.42l2.44,1.52a2.77,2.77,0,0,0,4.23-2.35V141A4,4,0,0,0,168.37,137Zm151,10a116.14,116.14,0,1,1-32.08-80h.08v.08A115.62,115.62,0,0,1,319.37,147Zm-32-75.58V80l-4,4v20h1a5,5,0,0,1,5,5v14a5,5,0,0,1-1.32,7.18l.2.5a1.67,1.67,0,0,1,.12.62V135l5.81,8.69a2,2,0,0,1-.66,2.85l-2.15,1.24v49.58l7.92,9.37A113,113,0,0,0,287.37,71.42ZM231.37,173a3,3,0,1,0-3-3A3,3,0,0,0,231.37,173Zm-2.05-7h3c-.62-8.19-8.58-20.21-11.1-23.81-3.38-4.85-13.83-17.19-17.26-17.19h-.15c-3.42,0-13.88,12.34-17.27,17.19-2.51,3.6-10.47,15.62-11.09,23.81h3c.88-15,21.05-36.94,25.38-36.94S228.38,151.89,229.32,166Zm-49.95,4a3,3,0,1,0-3,3A3,3,0,0,0,179.37,170Zm-60,29h12v-9.68l-7-.32-2-2h16V176h-16l3-2h6V164h-9l2-2h16.71l-21.71-12.5Zm46-23h-11v11h11Zm-13,11V176h-12v11h12Zm-19-13h12v-9.54l-.81-.46H133.37Zm28.57,0-14.57-8.38V174Zm-28.57,25h12V190l-12-.54Zm14,0h12v-9h-12Zm14,0h11v-9h-11Zm11-12v-7l-5-2.88V187Zm0-9.2V172h-7v-5h-8v-4h-7v-5h-8v-4h-7v-4h-8v-5h-8v-6l-3.07,4.62a1,1,0,0,0,.32,1.42l49.28,29h.47v.27Zm-52-54.8h11V110h-11v13Zm3-54v8h6V69Zm0,11a1,1,0,0,0,1,1h34a1,1,0,0,0,0-2h-34A1,1,0,0,0,123.37,80Zm24-3V69h-11v8Zm14-8h-6v8h6Zm13.7,1.29L178.78,74H229l2.77-2.77a1.18,1.18,0,0,1,0-1l.9-1.81L228.37,72h-.94l.94-2.42L226.43,72h-2l.63-3.37L222.37,72h-2l2-5h12.5l2.5-3h-67l2.5,3h10.5l2,5h-2l-2.7-3.37L181.3,72h-2l-1.94-2.42L178.3,72h-.93l-2-2ZM237.37,52h-9V63h9Zm-27-1h-1V63h10V51Zm-12,0h-10V63h10Zm-28,1V63h9V52Zm82,25V69h-6v8Zm-4,3a1,1,0,0,0,1,1h34a1,1,0,0,0,0-2h-34A1,1,0,0,0,248.37,80Zm23-3V69h-11v8Zm7-8v8h6V69Zm9,41h-11v13h11V110Zm-16,12v-5h-12v2l11.95.12v.76L259.37,121v1Zm0-9-12,1v1l12,0Zm-21-29v24h7l9.9,2h-7.9v2l12,0v.21a4.2,4.2,0,0,1,4.2-4.21h5.8V84h-8v4h-.45a7.48,7.48,0,0,0-14.11,0h-.44V84Zm0,27h-6v13h12V111Zm-61-2,11,2h-5l-1,1,7,1-6,1-1,1,9.5,1,8.5-1-1-1-6-1,7-1-1-1h-6l13-2v-6.33l-4,.33-5-1,3-1h2V93.8l-4-.8,3-1h5V84.73l-3,.27-4-2,3-1V76h-4v3h-.51a6.49,6.49,0,0,0-2.73-3.1,6,6,0,0,0-.56-.3l-.28-.11a5.54,5.54,0,0,0-.57-.21,3.34,3.34,0,0,0-.43-.1l-.47-.11a6.55,6.55,0,0,0-1.91,0l-.47.11a3.34,3.34,0,0,0-.43.1,5.54,5.54,0,0,0-.57.21l-.28.11c-.19.09-.37.19-.56.3a6.49,6.49,0,0,0-2.73,3.1h-.5V76h-4v6l3,1-4,2-3-.27V92h5l3,1-4,.8V101h2l3,1-5,1-4-.33Zm26,15h13V111h-13Zm-19-7,3,1h9l3-1Zm32-17V76h-13v6.08l11,.92v1l-7,.64V92h7v1l-11,1v7h11v1l-6,.5V109h8Zm-49,0v9h8v-6.5l-6-.5v-1h11V94l-11-1V92h7V84.64l-7-.64V83l11-.92V76h-13Zm0,11v13h13V111h-13Zm-16,0h-12v13h12Zm-15,3-12-1v2l12,0Zm-12,3v5h12v-1l-12-1.12v-.76l12-.12v-2Zm-10-33v24h5.79a4.21,4.21,0,0,1,4.21,4.21V112l12,0v-2h-7.91l9.91-2h7V84h-8v4h-.45a7.48,7.48,0,0,0-14.11,0h-.44V84Zm-7,42a1,1,0,0,0,.94,1l6.88.3L186,129.73l4,.17c-1.26,1.34-2.51,2.78-3.74,4.29l-.12.15c-.57.71-1.13,1.42-1.69,2.15l-.13.18c-.66.87-1.32,1.75-2,2.66l-1,1.55v-5.13a1.75,1.75,0,0,0-1.75-1.75H176.8a1.76,1.76,0,0,0-1.72,1.41l-.71,3.59-.09,0a6,6,0,0,0-11.86.22.64.64,0,0,1,0-.24,19.59,19.59,0,0,0-.87-4.46.72.72,0,0,0-.7-.54H159a.72.72,0,0,0-.7.58,3.29,3.29,0,0,1-.94,1.66,4.56,4.56,0,0,0-1.23-2.34,4.51,4.51,0,0,0-6.07-.3,4.51,4.51,0,0,0-3.68-1,4.68,4.68,0,0,0-2.6,1.39l0,0a4.5,4.5,0,0,0-1,1.68,11.89,11.89,0,0,1-.33-2.66l-21-1.2V138l51,28h0c.56-8.74,8.26-20.67,11.64-25.53,8.07-11.55,17.52-18.47,19.88-18.47,2.75,0,11.66,6.92,19.72,18.47,3.39,4.86,11.09,16.79,11.65,25.53h.06l51-28v-6.2l-21,1.2a12.22,12.22,0,0,1-.34,2.66,4.5,4.5,0,0,0-1-1.68l-.05,0a4.68,4.68,0,0,0-2.6-1.39,4.51,4.51,0,0,0-3.68,1,4.51,4.51,0,0,0-6.07.3,4.56,4.56,0,0,0-1.23,2.34,3.29,3.29,0,0,1-.94-1.66.72.72,0,0,0-.7-.58h-1.79a.72.72,0,0,0-.7.54,19.59,19.59,0,0,0-.86,4.46.65.65,0,0,1-.06.24,6,6,0,0,0-11.86-.22l-.08,0-.72-3.59a1.76,1.76,0,0,0-1.72-1.41h-2.81a1.75,1.75,0,0,0-1.75,1.75v5.13l-1.06-1.55c-.63-.91-1.29-1.79-1.95-2.66l-.13-.18c-.56-.73-1.12-1.44-1.69-2.15l-.12-.15c-1.23-1.51-2.48-2.95-3.74-4.29l4-.17,58.85-2.49,6.88-.3a1,1,0,0,0-.07-2l-6.9.18-2.87.08-8.44.22-54.4,1.46q-1.69-1.62-3.29-2.91c-3.06-2.49-5.75-4-7.51-4-1.55,0-4.51,1.49-7.66,4q-1.59,1.29-3.29,2.91l-54.4-1.46-8.44-.22-2.87-.08-6.9-.18A1,1,0,0,0,119.37,126Zm116,48v3.8l6-3.53V174h.46l49.28-29a1,1,0,0,0,.32-1.42L288.37,139v6h-8v5h-8v4h-7v4h-8v5h-7v4h-8v5h-7Zm39-10h-11.2l-.8.46V174h12Zm-7,12h-12v11h12Zm-14,11V176h-11v11Zm-13-9.88-5,2.88v7h5Zm20-3.12v-8.38L245.79,174Zm-25,25h11v-9h-11Zm13,0h12v-9h-12Zm14,0h12v-9.59l-12,.54Zm14,0h12V149.5L266.65,162h16.72l2,2h-9v10h6l3,2h-16v11h16l-2,2-7,.32Zm-73-165a112.65,112.65,0,0,0-79.81,33h39.81V80l-4,4v16h18V76.55a2.72,2.72,0,0,0-.81-1.94l-2.31-2.31a1,1,0,0,1-.24-1,.74.74,0,0,0-.15-.77l-7.08-7.08a1.37,1.37,0,0,1-.41-1,1.41,1.41,0,0,1,1-1.34V49h11V44h11v5h8V43h13v6h8V44h11v5h11V61.07a1.42,1.42,0,0,1,1,1.34,1.38,1.38,0,0,1-.42,1l-7.08,7.08a.74.74,0,0,0-.15.77,1,1,0,0,1-.24,1l-2.31,2.31a2.71,2.71,0,0,0-.8,1.94V100h18V84l-4-4V67h38.8A112.65,112.65,0,0,0,203.37,34Zm-113,113a112.41,112.41,0,0,0,17.49,60.41l8.51-10V147.78l-2.16-1.24a2,2,0,0,1-.66-2.85l5.82-8.69v-3.68a1.66,1.66,0,0,1,.11-.62l.2-.5a5,5,0,0,1-1.3-7.2h0V109a5,5,0,0,1,5-5h1V84l-4-4V70.33A112.58,112.58,0,0,0,90.37,147Zm206.89,62.88L290.37,202h-55v12.58c-1-.22-2-.4-3-.56V175.5a1.5,1.5,0,0,0-3,0v38.16c-.66-.06-1.33-.11-2-.15V177a15.09,15.09,0,0,0-4.82-11,5.46,5.46,0,0,1,4.82,2.89V166c0-6.6-7.48-17.6-12.35-21.27a5.36,5.36,0,0,1-3.65,1.27,3.9,3.9,0,0,0,1-2.5,3.65,3.65,0,0,0-3.87-3.86h-.77v-.78a3.87,3.87,0,0,0-7.73,0v.78h-.77a3.64,3.64,0,0,0-3.86,3.86,3.9,3.9,0,0,0,1,2.5,5.47,5.47,0,0,1-3.62-1.23c-4.86,3.84-12.38,15.44-12.38,21.23v2.89a5.43,5.43,0,0,1,4.81-2.89,15.1,15.1,0,0,0-4.81,11v37.8l-.56.11-1.44.35V175.5a1.5,1.5,0,0,0-3,0v40.56c-1,.3-2,.61-2.91.94h-.09V202h-55l-7.47,8.53a113,113,0,0,0,187.36-.65ZM288.37,204h-4l-12,2h18Zm4,4h-15l8,2h8Zm-15-49,9,1v-2h-4Zm5-3h4v-2h-1Zm-157,2h-4v2l9-1Zm-3-4h-1v2h4Zm8,26-9-1v2h2Zm-7,2h-2v2l8-1Zm1-12h-3v2h7Zm0-4h-3v2h7Zm-3,29v2h8l-4-2Zm4-4h-4v2h8Zm-6,14-2,2h24l-17-2Zm-5,4,1,2,19-2h-20Zm104-45,2,1c0-8-5-15-12-14C213.82,152.86,218.36,157,218.36,164Zm-19-13c-7-1-12,6-12,14l2-1C189.37,157,193.91,152.86,199.37,151Zm54.27-7,.15.16a1.54,1.54,0,0,0,2.16,0l1.88-1.88,1.8,1.8a1.51,1.51,0,0,0,2.15,0h0a1.51,1.51,0,0,0,0-2.15l-1.8-1.81,1.88-1.88a1.51,1.51,0,0,0,0-2.15l-.15-.16a1.54,1.54,0,0,0-2.16,0l-1.88,1.88-1.8-1.8a1.53,1.53,0,0,0-2.16,2.16l1.81,1.8-1.88,1.88A1.51,1.51,0,0,0,253.64,144Zm-105.89-3.88-1.8,1.81a1.51,1.51,0,0,0,0,2.15h0a1.51,1.51,0,0,0,2.15,0l1.8-1.8,1.88,1.88a1.54,1.54,0,0,0,2.16,0l.15-.16a1.51,1.51,0,0,0,0-2.15L152.21,140l1.81-1.8a1.53,1.53,0,0,0-2.16-2.16l-1.8,1.8-1.88-1.88a1.54,1.54,0,0,0-2.16,0l-.15.16a1.51,1.51,0,0,0,0,2.15Zm107,8.87a3.41,3.41,0,0,0,1.26-.25l1.28-.54a1.48,1.48,0,0,1,1.15,0l1.11.49a3.55,3.55,0,0,0,1.4.29c.93,0,3.46-.91,3.46-2a.79.79,0,0,0-.38-.57,4.51,4.51,0,0,1-6.16.22,4.53,4.53,0,0,1-6.08-.3,1,1,0,0,0-.38.65C251.37,148.38,253.85,149,254.71,149ZM156,146.35a4.53,4.53,0,0,1-6.08.3,4.51,4.51,0,0,1-6.16-.22.79.79,0,0,0-.37.57c0,1.09,2.52,2,3.45,2a3.55,3.55,0,0,0,1.4-.29l1.11-.49a1.48,1.48,0,0,1,1.15,0l1.28.54A3.41,3.41,0,0,0,153,149c.86,0,3.35-.62,3.35-2A1,1,0,0,0,156,146.35ZM283.37,137h-4l-8,2h9Zm1-3h-4l-8,2h12Zm-160,3,3,2h9l-8-2Zm3-3h-4v2h12Zm144-42.5a5.5,5.5,0,0,0-11,0V106h11Zm-64-10a3.5,3.5,0,0,0-7,0V107h7Zm72,21.5v-2l-4,1Zm-53,4v-1h-4Zm0-2v-1l-4,1Zm0-9V94l-6,2Zm0-6V88l-4,1Zm0-3V85l-4,2Zm0-6V80h-7Zm0-3V77l-7,1Zm0,21V97l-6,2Zm-104,12v2h6Zm0,8v2l6-2Zm0-4v2l6-1Zm163-2v-2l-6,2Zm0,8v-2h-6Zm0-4v-2l-6,1Zm-104-11v1l4-1Zm0-2v1h4Zm0-10v2h6Zm0-6v2l4-1Zm0-3v2h4Zm-10-32v2h4Zm0,6v2l4-2Zm0-3v2l4-1Zm18-3v2l5-1Zm0,8,5-1-5-1Zm0-3,6-1-6-1Zm13,9h-2l1,5Zm-4,5V67h-3l1,5Zm-4,0V67h-3l2,5Zm-3,0-1-5h-2l2,5Zm-3,0-2-5h-2l3,5Zm18-5h-2l1,5Zm4,0h-2v5h1Zm4,0h-2l-1,5h1Zm1,5,2-5h-2l-2,5Zm2,0,3-5h-2l-2,5Zm1-19-5,1,5,1Zm0,8V59l-5,1Zm0-5-6,1,6,1Zm18-3-4,2h4Zm0,6h-4l4,2Zm0-3-4,1,4,1Zm-55,24v1l7-1Zm0-3v1h7Zm0,20v2h6Zm98,2V97h-4Zm-1-4h1V93h-4Zm1-4V89h-5l4,2Zm0-4V86h-4l2,1Zm-23,15-4-1v2Zm-4-5v2l4-2Zm4-4h-4v2h1Zm1-4h-5v2h1Zm-1-3h-4v1h2Zm26-12.63-2,.63,2,1.37Zm0-3-2,1.63,2,.37Zm-34,5,2-1.37-2-.63Zm0-3,2-.37-2-1.63Zm-101,19.13a5.5,5.5,0,0,0-11,0V106h11Zm-15,10.5-4-1v2Zm-4-5v2l4-2Zm4-4h-4v2h1Zm1-4h-5v2h1Zm-1-3h-4v1h2Zm23,17v-2l-4,1Zm0-4V97h-4Zm-1-4h1V93h-4Zm1-4V89h-5l4,2Zm0-4V86h-4l2,1Zm-30-13.63v2l2-1.37Zm0-3v2l2-.37Zm34,3-2,.63,2,1.37Zm0-3-2,1.63,2,.37Z"/><path id="Gullfelt" class="cls-4" d="M203.37,0c-81.06,0-147,65.94-147,147s65.94,147,147,147,147-65.94,147-147S284.42,0,203.37,0Zm0,266a119,119,0,1,1,119-119A119.13,119.13,0,0,1,203.37,266Z"/><g id="Latin"><path class="cls-3" d="M105.12,61.58c-.29-.08-.44,0-.33.3s.35.67-.48,1.73-4.15,2.65-4.52,2.78-.44.07-.27-.31c1.09-2.45,2.61-4,.58-6-1.73-1.65-4.31-.68-5.33.25a42.34,42.34,0,0,0-3.24,4.17c-1.1,1.52-2.36,3.44-2.73,4s-.22.72.38.45,1.91-.1,5.65,2.59,3.66,4.29,3.65,4.64.08.53.34.25,1.47-1.79,2.17-2.76,1.7-2.32,2-2.78-.09-.46-.58-.23-2-.3-4.09-1.72c-.2-.13-.13-.32.14-.37a24.82,24.82,0,0,0,4.62-.24c2.21-.39,3.82-.73,4.5-3.36C108.07,63,105.41,61.68,105.12,61.58Zm-6.76,5.15a6.55,6.55,0,0,1-1,1.31c-.19.21-.34.16-.58,0-1.3-.85-3.47-2.57-3.74-2.73s-.35-.32-.13-.68A5.64,5.64,0,0,1,94.39,63a3.17,3.17,0,0,1,3.26.67C99.35,65.15,98.68,66.06,98.36,66.73Z"/><path class="cls-3" d="M84.41,94.68c-2.17-.63-3.23,1.37-3.41,1.61s-.3.21-.33-.14a3,3,0,0,0-2.37-2.86,2.75,2.75,0,0,0-3.21,1.32A50.13,50.13,0,0,0,73,100.38c-.64,2-1.61,5.23-1.69,5.61s.22.42.45.19.61-1.41,6.18.41,4.91,3.53,5,3.84.29.5.49.06,1.48-4.06,1.93-5.43,1.67-4.81,1.68-6.37S86.17,95.19,84.41,94.68Zm-5.87,7.43c-.05.16-.18.29-.49.2A21.47,21.47,0,0,1,74.52,101c-.27-.12-.31-.25-.17-.6a7.86,7.86,0,0,1,1.06-2.5,2.46,2.46,0,0,1,3.7.72C79.61,99.61,78.63,101.83,78.54,102.11Zm5.66,1.71c0,.26-.11.34-.39.3-1.24-.21-3.68-1-3.88-1a.33.33,0,0,1-.3-.46,15.68,15.68,0,0,1,1.17-3.22c1.41-1.51,3.81.07,4,1A7.37,7.37,0,0,1,84.2,103.82Z"/><path class="cls-3" d="M96.82,80.84c-.43.07-2.82-.52-6.3-2.37a18.6,18.6,0,0,1-6.13-5.64c-.29-.48-.52-.23-.37.29,1.2,4.28-.43,3.47-2.3,7a7.18,7.18,0,0,0,2.76,9.78c3.71,1.91,7.71,1.26,9.9-2.8s.1-4.19,2.62-5.67C97.6,81.07,97.54,80.73,96.82,80.84ZM85.59,84.9c-1-.52-3-3.28-2.1-5.12A3.43,3.43,0,0,1,88,77.9c2.15,1.14-1.47,6.45-1.74,6.91C86.07,85,85.92,85.07,85.59,84.9Zm8-.42C92.25,87.27,90,87,87.63,86c-.3-.12-.39-.24-.26-.59s2.21-4.5,2.72-4.83a2.58,2.58,0,0,1,2.33,0A2.87,2.87,0,0,1,93.58,84.48Z"/><path class="cls-3" d="M150.34,261.41c-4.07-1.84-4.19.19-5.84-2.22-.39-.58-.73-.48-.57.22.1.43-.32,2.85-1.92,6.45a18.52,18.52,0,0,1-5.2,6.51c-.46.32-.19.53.32.35,4.18-1.5,3.49.18,7.13,1.8a7.16,7.16,0,0,0,9.56-3.43C155.47,267.26,154.54,263.3,150.34,261.41Zm-1.57,8.92c-.45,1-3.06,3.25-5,2.45a3.43,3.43,0,0,1-2.19-4.32c1-2.22,6.54,1,7,1.26C148.87,269.84,148.92,270,148.77,270.33Zm1-2.11c-.1.3-.21.4-.56.3s-4.65-1.89-5-2.37a2.6,2.6,0,0,1-.18-2.33,2.89,2.89,0,0,1,3.81-1.44C150.67,263.52,150.53,265.83,149.74,268.22Z"/><path class="cls-3" d="M136.41,41.3c-.43-.12-2.33-1.69-4.67-4.85a18.5,18.5,0,0,1-3.09-7.74c-.06-.56-.37-.43-.46.1-.76,4.38-1.88,2.94-5.09,5.31a7.17,7.17,0,0,0-1.74,10c2.52,3.33,6.41,4.47,10.13,1.76s1.9-3.74,4.82-4C137,41.85,137.09,41.51,136.41,41.3Zm-11.89-1.19c-.66-.89-1.32-4.27.32-5.52a3.42,3.42,0,0,1,4.83.24c1.44,2-4.12,5.17-4.56,5.46C124.89,40.44,124.74,40.41,124.52,40.11Zm7.38,3.08c-2.4,1.94-4.34.68-6-1.19-.22-.24-.25-.38,0-.64s3.94-3.11,4.54-3.19a2.62,2.62,0,0,1,2.12,1A2.89,2.89,0,0,1,131.9,43.19Z"/><path class="cls-3" d="M79.65,127c-.39.23-2.82.54-6.73.09a18.58,18.58,0,0,1-7.76-3c-.45-.34-.57,0-.25.41,2.68,3.55.86,3.39.4,7.34a7.16,7.16,0,0,0,6.11,8.11c4.15.44,7.65-1.61,8.22-6.19.54-4.43-1.44-3.94.39-6.24C80.46,126.91,80.27,126.61,79.65,127Zm-8.58,7.26c0,.24-.16.32-.5.29-1-.12-3.64-1.78-3.46-3.65a3.1,3.1,0,0,1,3.16-3.06C72.46,128.06,71.14,133.76,71.07,134.23Zm2.05.61c-.29,0-.4-.07-.41-.41a28.21,28.21,0,0,1,.7-5,2.4,2.4,0,0,1,2-.78,2.63,2.63,0,0,1,2.27,2.93C77.45,134.38,75.41,134.88,73.12,134.84Z"/><path class="cls-3" d="M174.51,270.3c-.45-.17-2.58-.72-5-1.36-1.31-.34-4.83-1.58-6.48-1.07-2,.6-3.47,2.68-4.13,5.2-.74,2.85-.55,4.64.83,5.94,1.21,1.12,2.77,1.57,6,2.3,1.5.33,5.33,1.44,5.71,1.49s.53-.31.2-.6-1-1,0-5.89c1.21-5.34,2.39-5.33,2.73-5.49S175,270.47,174.51,270.3Zm-6.93,5a25.77,25.77,0,0,1-1.6,4.47.47.47,0,0,1-.57.3,4.86,4.86,0,0,1-1.89-.74c-.52-.58-1-1.7-.08-5s2-4.09,3-4.38a3.62,3.62,0,0,1,1.68.2c.33.08.38.24.42.5A33.15,33.15,0,0,1,167.58,275.31Z"/><path class="cls-3" d="M81.44,177.26c-.16-.85-.72-3.28-.84-3.65s-.46-.36-.49,0-.91,1.37-3.47,1.27c-.31,0-.41-.1-.47-.38s-.56-3.26-.62-3.55-.08-.45.23-.58c3.13-1.19,3.26-.86,3.5-.66s.55.34.46-.13-.2-2.07-.5-3.67a43.35,43.35,0,0,0-1-4.26c-.21-.54-.53-.19-.53.3s-.6,2.51-4,5a19.19,19.19,0,0,1-4.66,2.49,1,1,0,0,1-.82-.19c-.17-.16-2.16-1.88-2.42-2.23s-.52,0-.3.5c1.43,2.9,2,6.55,3,11.7.07.37.31.38.54,0,1.09-1.53,4.54-1,6.33-.66,4.9.83,5.79,1.89,6.07,2.13s.53.19.5-.2S81.6,178.11,81.44,177.26Zm-6.87-2.39c-.34,0-3.3.2-3.65.2s-.35,0-.46-.36-.46-1.18-.56-1.45-.14-.47.12-.62,3.39-1.27,3.62-1.35c.39-.15.51-.15.62.17s.54,2.59.6,2.87S74.91,174.86,74.57,174.87Z"/><path class="cls-3" d="M266.14,271.29c-1.74-.68-2-4.16-2.17-6-.37-4.95.45-6.07.61-6.4s.06-.55-.31-.44-2.27.94-3,1.3-3,1.48-3.34,1.69-.24.53.11.47,1.55.56,2.07,3.07c.06.3,0,.42-.26.54L256.51,267c-.26.13-.43.2-.62-.08-1.92-2.75-1.62-3-1.48-3.23s.19-.62-.25-.42-1.95.69-3.44,1.37-3.41,1.67-3.89,2-.06.56.42.45,2.57,0,5.81,2.67a18.48,18.48,0,0,1,3.54,3.92,1,1,0,0,1,0,.84c-.11.21-1.31,2.55-1.58,2.88s.17.5.55.18c2.48-2.09,5.88-3.54,10.64-5.72C266.57,271.68,266.52,271.45,266.14,271.29Zm-4.75-.26c-.29.19-1,.73-1.28.9s-.42.25-.62,0-2.05-3-2.19-3.18-.26-.46,0-.65,2.38-1.14,2.64-1.26.5-.18.6.15,1,3.15,1.06,3.49S261.67,270.85,261.39,271Z"/><path class="cls-3" d="M64.92,152.39c.15,2.44.32,4.5.38,5.55a2.53,2.53,0,0,1-.43,1.76c-.17.3,0,.58.32.42s3.23-.63,3.66-.7.51-.27-.08-.57c-.84-.44-1.19-2.24-1.25-4.11,0-.29.16-.4.4-.41s3.19,0,4.87.09c2.94.07,4.36.66,4.68,1.17s.61.49.57-.13c0-.38,0-2.55-.08-3.89s-.23-3.21-.31-3.59c-.13-.62-.43-.69-.63,0-.12.47-1.31,1.37-4.55,1.85-1.53.23-4.53.56-4.77.57s-.44,0-.46-.35-.12-2.11-.14-2.45a.92.92,0,0,1,.24-.69,11.46,11.46,0,0,1,.86-.87c.32-.3.17-.52-.27-.55a22.91,22.91,0,0,1-5.45-1.22c-.54-.22-.49.23-.17.49,3.09,2.51,2.47,5.14,2.61,7.59"/><path class="cls-3" d="M73.49,194.88c.84,2.3,1.6,4.22,2,5.21a2.48,2.48,0,0,1,.1,1.81c-.08.34.16.55.42.3s2.92-1.53,3.31-1.72.41-.4-.25-.52c-.93-.17-1.78-1.8-2.38-3.58-.09-.27,0-.42.27-.51s3.06-.86,4.69-1.31c2.83-.78,4.36-.62,4.82-.23s.72.3.51-.29c-.14-.36-.75-2.44-1.21-3.7s-1.14-3-1.33-3.35c-.3-.55-.61-.54-.58.22,0,.49-.86,1.69-3.83,3.09-1.4.66-4.18,1.84-4.41,1.92s-.42.1-.54-.21l-.84-2.3a.88.88,0,0,1,0-.73,8.52,8.52,0,0,1,.58-1.08c.21-.38,0-.54-.43-.46a22.71,22.71,0,0,1-5.57.41c-.58,0-.4.36,0,.52,3.67,1.51,3.85,4.21,4.69,6.51"/><path class="cls-3" d="M239.05,282.07c2.36-.67,4.33-1.27,5.35-1.56a2.48,2.48,0,0,1,1.8,0c.33.11.57-.11.34-.39s-1.3-3-1.47-3.43-.37-.45-.54.2c-.24.92-1.93,1.64-3.74,2.1-.28.08-.42-.08-.49-.31s-.63-3.11-1-4.77c-.56-2.88-.29-4.39.13-4.82s.36-.7-.24-.53c-.37.1-2.49.55-3.79.92s-3.08.91-3.43,1.07c-.58.26-.59.57.16.6.5,0,1.63,1,2.8,4.05.55,1.45,1.51,4.31,1.58,4.54s.07.43-.26.52L234,281a.83.83,0,0,1-.72-.1,8.4,8.4,0,0,1-1-.65c-.37-.25-.54-.05-.49.39a22.73,22.73,0,0,1,0,5.59c-.09.57.33.42.52.05,1.79-3.55,4.49-3.51,6.85-4.18"/><path class="cls-3" d="M279.57,263.93c2-1.36,3.73-2.55,4.61-3.14a2.58,2.58,0,0,1,1.73-.52c.34,0,.5-.27.2-.47s-2.17-2.48-2.46-2.81-.49-.31-.45.36c.06.94-1.33,2.16-2.91,3.15a.37.37,0,0,1-.56-.14c-.13-.2-1.56-2.77-2.38-4.24-1.42-2.57-1.62-4.1-1.36-4.64s.12-.77-.39-.42c-.32.21-2.2,1.29-3.32,2s-2.65,1.81-2.94,2.08c-.46.42-.38.71.35.52.47-.13,1.85.43,3.9,3,1,1.2,2.77,3.63,2.91,3.83s.2.39-.08.57l-2,1.36a.89.89,0,0,1-.72.14,9.21,9.21,0,0,1-1.19-.31c-.42-.12-.52.12-.34.52a23.08,23.08,0,0,1,1.71,5.32c.09.58.44.3.5-.1.61-3.93,3.2-4.73,5.23-6.09"/><path class="cls-3" d="M336.12,143.54c-5.9-.18-6.88,5-6.95,7.09s1.22,7.34,7.17,7.52,7.05-4.34,7.14-7.27C343.59,147.38,342,143.73,336.12,143.54Zm.14,9.42c-3.94-.12-5.62-1.61-5.6-2.19s1.56-2.26,5.59-2.13,5.75,1.81,5.74,2.29S340.19,153.09,336.26,153Z"/><path class="cls-3" d="M138.06,25.09a22.43,22.43,0,0,0-2.38,1.4c-.49.32-.33.55.17.61,1.08.14,1.82,1.47,3.8,5.53,1.9,3.89,1.25,4.86,1.07,5.12s-.18.58.23.42,1.7-.73,2.77-1.29,2.9-1.57,3.22-1.79.45-.39-.19-.43-1.64-.38-3.69-3.76c-.77-1.26-2.05-3.49-2.33-4s.05-.61.43-.33,2,1.67,4,3.25a55.07,55.07,0,0,0,4.6,3.28.84.84,0,0,0,1,0c.22-.12,1.44-.63,2.63-1.24a22.32,22.32,0,0,0,2-1.1c.38-.31.18-.47-.3-.65S153.21,28,151.84,25c-2-4.22-1.27-5.45-1.05-5.71s0-.49-.39-.34a28.77,28.77,0,0,0-2.78,1.13,33.1,33.1,0,0,0-3.26,1.7c-.53.35-.1.46.34.47s1.59.46,3.75,4.06c.76,1.28,2.13,3.58,2.39,4s-.14.55-.56.29a26.71,26.71,0,0,1-4.3-3c-1.44-1.27-4.38-3.68-4.64-3.86a.77.77,0,0,0-.9,0l-2.38,1.25"/><path class="cls-3" d="M311.17,235.66a24.12,24.12,0,0,0,1.71-2.16c.35-.47.11-.63-.38-.51-1.05.26-2.22-.72-5.53-3.79s-2.91-4.08-2.84-4.39c.1-.48-.05-.6-.37-.31s-1.32,1.29-2.12,2.2-2.14,2.51-2.36,2.83-.28.53.33.34,1.68-.25,4.8,2.17c1.17.91,3.17,2.52,3.61,2.88s.18.59-.28.47-2.5-.83-4.87-1.6a53.5,53.5,0,0,0-5.47-1.41.83.83,0,0,0-.9.38c-.17.19-1.13,1.11-2,2.11a18.48,18.48,0,0,0-1.48,1.75c-.25.42,0,.5.51.5s2.48,1.32,4.81,3.56c3.37,3.23,3.15,4.63,3,4.95s.15.47.48.18a27.08,27.08,0,0,0,2.19-2.06,36.19,36.19,0,0,0,2.44-2.76c.36-.52-.08-.47-.49-.31s-1.65.14-5-2.45c-1.17-.91-3.29-2.57-3.69-2.9s-.07-.57.42-.47a26.71,26.71,0,0,1,5.08,1.2c1.79.67,5.4,1.85,5.72,1.93a.77.77,0,0,0,.84-.31l1.77-2"/><path class="cls-3" d="M121.61,253.66c5.65-4.48,2.16-10.11-1.37-12.09-1.51-.85-1.92-1.66-2.06-2.29s-.34-.58-.84.18a15.62,15.62,0,0,1-2.56,2.64c-.67.54-1,.91.42.53s4-.09,5.11,1.34.77,3.92-1.79,5.95-5.39,2.31-6.58.8a8.63,8.63,0,0,1-1.32-4.83c0-.51-.11-.7-.53-.51a18.56,18.56,0,0,1-4.88,1.49c-.89,0-.64.5,0,.58s2.68.21,3.81,1.64c.89,1.13.07.86,2.13,3.46a7.5,7.5,0,0,0,10.43,1.11"/><path class="cls-3" d="M334,124.13c-7.11,1.14-6.83,7.76-4.72,11.21a3.53,3.53,0,0,1,.68,3c-.19.61,0,.68.82.26a15.48,15.48,0,0,1,3.52-1.06c.86-.13,1.32-.31-.1-.66s-3.51-1.87-3.8-3.67,1.24-3.8,4.46-4.32,5.84.63,6.14,2.52a8.63,8.63,0,0,1-1.21,4.86c-.27.44-.25.67.21.7a18.69,18.69,0,0,1,5,1.09c.8.39.8-.13.25-.52a5.46,5.46,0,0,1-2.52-3.3c-.23-1.42.36-.78-.17-4.05a7.48,7.48,0,0,0-8.55-6.07"/><path class="cls-3" d="M163,13.66c-2,.68-5.55,2.85-4.54,5.83.77,2.27,3.36,3.67,6.92,2.46,1.63-.55,4.58-.84,5,.3.27.82,0,2-2.39,2.83-3.82,1.3-7.58-.93-8.13-1.4s-1.21-.34-.51.43a17.48,17.48,0,0,1,2.39,4.81c.1.58.6.39.61-.15a2.09,2.09,0,0,1,1.4-1.39c1.65-.56,2.31.39,4.9-.5,4-1.34,5.56-4.41,4.8-6.64s-2.87-3-5.73-2.67c-1.86.23-5.58,1.75-6.11.05-.24-.74.21-1.62,2-2.33,2.56-1,6.51-.41,6.77-.39s.53.07.54-.34-.11-3.76-.06-4.08-.19-.4-.38-.08a6.51,6.51,0,0,1-2.13,2.12c-1.08.69-3.31.46-5.31,1.14"/><path class="cls-3" d="M229.15,10.22c-2.06-.48-6.22-.51-6.94,2.55-.55,2.34.92,4.89,4.57,5.75,1.68.39,4.33,1.71,4.06,2.88-.2.84-1.09,1.71-3.52,1.14-3.93-.92-5.94-4.8-6.16-5.49s-.85-.92-.66.1A17.75,17.75,0,0,1,220,22.5c-.22.53.31.64.6.19a2.05,2.05,0,0,1,1.92-.44c1.7.4,1.76,1.55,4.43,2.17,4.06,1,7-.81,7.58-3.1s-.83-4.08-3.44-5.3c-1.7-.79-5.67-1.46-5.22-3.19.19-.74,1-1.26,2.93-.92,2.7.49,5.73,3.1,5.94,3.25s.41.34.64,0,1.9-3.26,2.1-3.5.06-.43-.28-.26a6.76,6.76,0,0,1-2.92.67c-1.28,0-3.06-1.36-5.11-1.85"/><path class="cls-3" d="M203.37,287c2.11,0,6.17-.92,6.17-4.05,0-2.41-2-4.57-5.76-4.57-1.73,0-4.61-.67-4.61-1.86,0-.87.67-1.93,3.17-1.93,4,0,6.88,3.32,7.25,3.94s1,.71.62-.24a17.77,17.77,0,0,1-.72-5.33c.1-.58-.44-.56-.62-.05a2.11,2.11,0,0,1-1.78.87c-1.74,0-2.06-1.11-4.8-1.11-4.18,0-6.67,2.4-6.67,4.76s1.73,3.78,4.56,4.36c1.84.38,5.85.13,5.81,1.92,0,.77-.72,1.47-2.64,1.57-2.75.13-6.29-1.71-6.53-1.81s-.48-.24-.63.15-1.1,3.6-1.24,3.89,0,.43.33.19a6.52,6.52,0,0,1,2.69-1.32c1.25-.31,3.29.62,5.4.62"/><path class="cls-3" d="M203.63,7.28a12.25,12.25,0,0,0-3.22.36c-.38.05-.6.27.05.51.81.29,1.34,1.55,1.53,3.19a6,6,0,0,1,.1,2.21c-.07.07-.63.24-2.83-.1s-2.55-.63-2.69-1-.34-.43-.48.1a8,8,0,0,0-.24,2.54,13.28,13.28,0,0,0,.14,2.64c.1.53.29.39.58,0s.58-.72,2.78-1.39,2.76-.55,2.84-.48a10.31,10.31,0,0,1-.29,2.54c-.29,1.92-1.1,2.93-1.49,3.12s-.38.29.05.44a12.12,12.12,0,0,0,3.21.29,15.74,15.74,0,0,0,3-.2c.58-.09.48-.38-.1-.48s-1.15-1.39-1.44-3.21a10.1,10.1,0,0,1-.29-2.55,17.42,17.42,0,0,1,2.69.29,5.16,5.16,0,0,1,2.84,1.63c.19.39.33.48.52,0a6.34,6.34,0,0,0,.39-2.77,11.48,11.48,0,0,0-.2-2.61c0-.34-.24-.41-.5,0s-1.18.84-3.05,1.08a9.81,9.81,0,0,1-2.64.24c-.09-.09,0-.28.34-2.49s1-2.87,1.51-3.1.51-.31,0-.45a9.91,9.91,0,0,0-3.12-.27"/><path class="cls-3" d="M181.46,9.62a33.06,33.06,0,0,0-3.61.84c-.41.12-.46.42,0,.48s1.83.4,2.69,5.22c1,5.49-.34,6.06-.65,6.26-.47.33-.33.6.15.56s2.29-.31,3.89-.59a29.42,29.42,0,0,0,3.52-.78c.65-.21.5-.47-.05-.57s-1.77-.08-2.77-5.7c-.8-4.49.33-5.57.68-5.78s.35-.5-.18-.46c-.38,0-1.91.2-3.71.52"/><path class="cls-3" d="M80.06,210.66a30.61,30.61,0,0,0,1.79,3.24c.23.37.52.33.45-.16s-.11-1.87,4.3-4c5-2.42,5.92-1.31,6.2-1.08.44.37.66.16.49-.29s-.91-2.12-1.63-3.59A30.19,30.19,0,0,0,90,201.6c-.38-.57-.6-.36-.54.21s.4,1.72-4.74,4.21c-4.1,2-5.44,1.19-5.74.91s-.58-.2-.39.3.71,1.79,1.5,3.43"/><path class="cls-3" d="M99.82,239.68a35.89,35.89,0,0,0,2.67,2.55c.33.28.61.15.38-.29s-.66-1.75,2.91-5.11c4-3.82,5.24-3,5.58-2.9.54.23.68,0,.39-.42s-1.51-1.75-2.64-2.94a30.42,30.42,0,0,0-2.57-2.52c-.53-.42-.67-.15-.45.37s.9,1.52-3.25,5.43c-3.32,3.13-4.84,2.78-5.2,2.6s-.62,0-.29.4,1.21,1.5,2.47,2.83"/><path class="cls-3" d="M221.2,285.44a33.55,33.55,0,0,0,3.66-.54c.43-.08.5-.38,0-.48s-1.79-.55-2.24-5.43c-.52-5.55.84-6,1.16-6.18.5-.29.38-.57-.1-.57s-2.31.11-3.93.27a33.07,33.07,0,0,0-3.58.47c-.65.16-.53.44,0,.58s1.76.22,2.28,5.91c.43,4.54-.78,5.52-1.15,5.7s-.39.47.14.47c.38,0,1.93,0,3.74-.2"/><path class="cls-3" d="M294,253.29c1.37-1.2,2.36-2.25,2.66-2.57s.17-.6-.29-.39-1.77.59-5-3.1c-3.67-4.19-2.83-5.35-2.68-5.69.24-.53,0-.68-.42-.4s-1.8,1.44-3,2.52a31.64,31.64,0,0,0-2.61,2.48c-.44.51-.18.67.34.46s1.55-.85,5.31,3.45c3,3.44,2.6,4.94,2.41,5.3s-.05.61.38.3,1.54-1.15,2.92-2.36"/><path class="cls-3" d="M279.24,30.62c-1.5-1-2.77-1.73-3.15-1.94s-.63,0-.32.37,1,1.57-1.75,5.61c-3.15,4.59-4.49,4.07-4.85,4-.57-.11-.65.19-.29.5s1.85,1.38,3.19,2.31a31.9,31.9,0,0,0,3.05,1.92c.61.3.7,0,.37-.45s-1.21-1.29,2-6c2.58-3.76,4.14-3.73,4.54-3.63s.6-.11.19-.45-1.5-1.21-3-2.24"/><path class="cls-3" d="M247.12,15.22c-1.73-.59-3.14-.93-3.56-1s-.61.15-.2.45,1.4,1.24-.21,5.87c-1.82,5.26-3.24,5.12-3.61,5.15-.58.06-.58.36-.14.56s2.15.84,3.69,1.38a31.57,31.57,0,0,0,3.45,1c.66.13.67-.18.23-.53s-1.51-.93.36-6.33c1.49-4.3,3-4.7,3.41-4.71s.55-.27.07-.49-1.77-.76-3.49-1.36"/><path class="cls-3" d="M106.4,57.13c3.06,3.13,6.82,3.81,10.83-.12,3.43-3.36,2.48-6.53.7-8.35a3.66,3.66,0,0,0-5.3,0,2.93,2.93,0,0,0-.22,4c1,1,1.46,1,1.9,1s.65-.1.31-.44-.12-1.22.36-1.69a1.3,1.3,0,0,1,2-.05c1.24,1.27.48,3.16-.79,4.41s-3.54.77-6.26-2c-2.42-2.46-2.6-5-1.64-5.92a9.31,9.31,0,0,1,4.52-2.25c.5-.08.53-.16.33-.58s-1.22-2.28-1.46-2.7-.42-.36-.41.13a3.25,3.25,0,0,1-1,2.54c-1,.95-1.79.38-3.58,2.13a7.07,7.07,0,0,0-.27,9.94"/><path class="cls-3" d="M254.27,23.87c-2,3.86-1.54,7.65,3.43,10.28,4.24,2.23,7,.36,8.15-1.89a3.64,3.64,0,0,0-1.56-5.06,2.93,2.93,0,0,0-3.87,1,2.46,2.46,0,0,0-.39,2.13c.14.51.29.59.51.16s1.13-.49,1.73-.18a1.32,1.32,0,0,1,.64,1.87c-.83,1.57-2.86,1.42-4.43.58s-1.83-3.13,0-6.57c1.61-3.05,4-4,5.14-3.36a9.2,9.2,0,0,1,3.52,3.62c.24.45.32.45.66.13s1.8-1.86,2.12-2.22.22-.51-.24-.34a3.28,3.28,0,0,1-2.73-.17c-1.19-.62-.91-1.59-3.12-2.76a7.07,7.07,0,0,0-9.55,2.78"/><path class="cls-3" d="M306.3,53.66c-1.18-1.33-1.93-2.1-2.25-2.4s-.47-.14-.36.26c.25.86-.62,1.83-4.12,5.19s-4.22,3.18-4.61,3-.6.12-.1.54a24.34,24.34,0,0,1,1.76,1.91c.73.83,2.55,2.88,4.42,5.06s4,2.52,5.79,1a2.94,2.94,0,0,0,0-4.3,3.18,3.18,0,0,0-1.7-.93c-.33-.09-.41,0-.22.32s0,1.09-.92,1.72a2.41,2.41,0,0,1-3-.29l-1.77-2a.33.33,0,0,1,0-.53c.18-.16.33-.35,3-2.68s4.82-3.28,5.9-3.11c.41.06.5,0,.24-.38s-.88-1.07-2.06-2.4"/><path class="cls-3" d="M291.5,40c-1.35-1.15-2.2-1.81-2.56-2.06s-.49-.07-.32.3c.37.82-.36,1.9-3.36,5.71s-3.74,3.74-4.14,3.67-.58.2,0,.55a25,25,0,0,1,2,1.64c.84.72,2.92,2.5,5.08,4.4s4.34,1.94,5.87.15.21-3.57-.59-4.26a3.21,3.21,0,0,0-1.81-.69c-.34,0-.4.1-.18.35s.15,1.08-.67,1.83a2.4,2.4,0,0,1-3,.13l-2-1.73a.32.32,0,0,1,0-.52c.16-.18.27-.4,2.55-3.06s4.32-3.92,5.41-3.91c.42,0,.49-.08.19-.4s-1-.94-2.38-2.1"/><path class="cls-3" d="M92.55,230.87a24.55,24.55,0,0,0,2,2.63c.28.33.44.22.36-.24a13.62,13.62,0,0,1,1.17-3.93c.63-1.47,5.09-9.87,5.24-10.15s.21-.55-.35-.52-1.41,0-7.65.25-8.17-.49-8.6-.79-.54,0-.34.35a35.08,35.08,0,0,0,1.86,3.09,32.63,32.63,0,0,0,2,2.66c.23.26.36.19.33-.19s.2-1.31,1.62-1.89a34.9,34.9,0,0,1,7-1.65c.38,0,.51.1.29.47-.75,1.22-3.15,4.51-4.2,5.8a1.86,1.86,0,0,1-2.42.71c-.27-.16-.46-.09-.26.29s.81,1.4,2,3.11"/><path class="cls-3" d="M324.36,217.14a25.05,25.05,0,0,0,1.65-2.85c.2-.39,0-.49-.36-.24a13.41,13.41,0,0,1-4.07.45c-1.6,0-11.07-.86-11.4-.9s-.58,0-.33.53.51,1.31,3.2,7,2.7,7.72,2.61,8.22.17.52.45.19,1.26-1.59,2.12-2.92a31.3,31.3,0,0,0,1.69-2.85c.15-.31,0-.41-.31-.23s-1.28.32-2.36-.77A34,34,0,0,1,313,216.9c-.18-.34-.11-.51.32-.45,1.41.21,5.38,1.15,7,1.61a1.88,1.88,0,0,1,1.59,2c0,.32.1.46.37.13s1-1.28,2.11-3"/><path class="cls-3" d="M317.14,66.35a23.15,23.15,0,0,0-2-2.65c-.28-.33-.44-.22-.36.24a13.91,13.91,0,0,1-1.21,3.91c-.64,1.47-5.17,9.83-5.33,10.11s-.21.55.34.52,1.42,0,7.66-.18,8.17.57,8.59.87.55,0,.35-.35-1-1.79-1.84-3.11A31.83,31.83,0,0,0,321.43,73c-.22-.25-.36-.19-.33.2s-.21,1.3-1.64,1.86a33.75,33.75,0,0,1-7,1.59c-.39,0-.52-.1-.29-.47.76-1.21,3.19-4.48,4.25-5.75a1.86,1.86,0,0,1,2.42-.69c.28.16.47.09.27-.3s-.79-1.4-1.93-3.12"/><path class="cls-3" d="M334.45,195a21.8,21.8,0,0,0,1.06-3c.09-.4-.07-.48-.44-.18-.72.58-2.42,0-6.22-1.67-4.91-2.21-4.46-3.21-4.5-3.55s-.25-.53-.48-.1-.82,1.63-1.38,3-1.13,2.91-1.27,3.37.15.56.51.19c.63-.62,2.7-.4,5.89.93,2.08.88,3.48,1.51,3.86,1.72s.33.45-.1.48-6.77.65-7.32.71a.44.44,0,0,0-.29.68c.42.61,4.36,5.63,4.62,6s.06.47-.21.38c-.42-.13-1.24-.52-3.94-1.65s-4.87-2.56-4.93-3.42c0-.38-.21-.71-.44-.29s-.82,1.69-1.52,3.38a21.76,21.76,0,0,0-1.2,3.34c-.06.4,0,.52.51.17s1-.89,6.06.92,5,2.81,5.11,3.16.22.27.4,0,1.07-2.31,1.37-3,.95-2.41,1-2.74a.73.73,0,0,0-.12-.83c-.21-.24-3-3.73-3.19-3.94s-.21-.37.17-.4,4.61-.19,4.93-.22.37,0,.58-.27a22,22,0,0,0,1.44-3.05"/><path class="cls-3" d="M341.34,168.62a22.58,22.58,0,0,0,.52-3.18c0-.42-.16-.47-.47-.1-.6.7-2.37.46-6.42-.56-5.21-1.32-5-2.38-5.05-2.71s-.33-.47-.48,0-.52,1.75-.84,3.16-.61,3.06-.67,3.53.25.52.54.1c.51-.72,2.59-.87,6-.11,2.2.49,3.69.88,4.1,1s.41.38,0,.49-6.55,1.82-7.09,2a.45.45,0,0,0-.16.73c.51.52,5.27,4.77,5.6,5.09s.14.46-.15.42-1.31-.3-4.17-.94-5.23-1.67-5.44-2.5c-.09-.38-.34-.67-.49-.21s-.51,1.8-.9,3.58a22.44,22.44,0,0,0-.6,3.51c0,.4.09.51.53.07s.83-1,6.13-.15,5.46,1.89,5.58,2.22.27.23.39-.09.65-2.46.82-3.21.51-2.54.55-2.88,0-.59-.26-.79-3.64-3.15-3.83-3.33-.27-.33.09-.42,4.51-1,4.82-1.08.36-.07.53-.37a22.85,22.85,0,0,0,.87-3.25"/><path class="cls-3" d="M328.73,85.71a24.21,24.21,0,0,0-1.43-2.89c-.22-.35-.4-.28-.44.19-.08.92-1.66,1.76-5.55,3.27-5,2-5.41,1-5.68.74s-.55-.19-.41.27.6,1.73,1.16,3.06,1.28,2.84,1.51,3.27.5.28.5-.24c0-.88,1.6-2.21,4.78-3.56,2.08-.87,3.51-1.42,3.93-1.55s.55.08.27.41S323.1,94,322.76,94.4a.45.45,0,0,0,.29.69c.72.12,7.07.82,7.51.89s.38.28.13.42-1.24.52-3.94,1.66-5.23,1.68-5.88,1.13c-.3-.26-.67-.34-.53.11s.64,1.77,1.35,3.45a22.18,22.18,0,0,0,1.56,3.2c.24.31.36.36.47-.25s.06-1.34,4.9-3.69,5.54-1.63,5.83-1.44.35,0,.27-.3-.9-2.38-1.2-3.09-1.06-2.36-1.23-2.66-.36-.47-.68-.49-4.79-.45-5.05-.48-.41-.11-.17-.4,3.09-3.43,3.3-3.68.25-.26.21-.61a22.3,22.3,0,0,0-1.17-3.15"/><path class="cls-3" d="M68.47,115a2.09,2.09,0,0,0,1.5,2.58,2.16,2.16,0,1,0-1.5-2.58"/><path class="cls-3" d="M76.74,117.14a2.11,2.11,0,1,0,4.13.9,2.18,2.18,0,0,0-1.53-2.64,2.11,2.11,0,0,0-2.6,1.74"/><path class="cls-3" d="M127.27,263.53a2.1,2.1,0,0,0,3-.38,2.16,2.16,0,1,0-3,.38"/><path class="cls-3" d="M132.45,256.74a2.12,2.12,0,1,0,2.43-3.47,2.19,2.19,0,0,0-3,.4,2.11,2.11,0,0,0,.61,3.07"/><path class="cls-3" d="M182.89,285.13a2.09,2.09,0,0,0,2.43-1.73,2.16,2.16,0,0,0-4.27-.67,2,2,0,0,0,1.84,2.4"/><path class="cls-3" d="M184.26,276.7a2.12,2.12,0,1,0,.5-4.2,2.18,2.18,0,0,0-2.48,1.78,2.1,2.1,0,0,0,2,2.42"/><path class="cls-3" d="M338.38,112.6a2.1,2.1,0,0,0-2.58-1.51,2.16,2.16,0,1,0,2.58,1.51"/><path class="cls-3" d="M330.13,114.81a2.12,2.12,0,1,0-4,1.25,2.17,2.17,0,0,0,2.63,1.54,2.1,2.1,0,0,0,1.41-2.79"/></g></g></g></g></svg>