<svg xmlns="http://www.w3.org/2000/svg" viewBox="0 0 776.37 294"><defs><style>.cls-1{fill:#2d2a26;}.cls-2{fill:#fff;}.cls-3{fill:#d7282f;}.cls-4{fill:#d29e0e;}</style></defs><g id="Layer_2" data-name="Layer 2"><g id="Vanlig"><g id="Logo-PMS-bredde-Bergenkommune"><path id="Bergen_kommune" data-name="Bergen kommune" class="cls-1" d="M370.17,86.85c-.12-3.13-.26-6.27-.41-9.4,1.27.1,2.57.18,3.89.26s2.62.11,3.9.11,2.57-.06,3.89-.19,2.62-.18,3.89-.18a35.15,35.15,0,0,1,5.95.48,14.74,14.74,0,0,1,4.92,1.69,9.27,9.27,0,0,1,3.38,3.26A9.78,9.78,0,0,1,400.82,88c0,3.63-1.13,6.47-3.41,8.52a19.39,19.39,0,0,1-8.92,4.33V101q6.52.3,10.32,3.16t3.78,9.18a13.16,13.16,0,0,1-1.69,6.9,13.71,13.71,0,0,1-4.41,4.52,18.05,18.05,0,0,1-6,2.42,30.78,30.78,0,0,1-6.5.7c-1.18,0-2.36,0-3.56-.07s-2.39-.08-3.57-.08h-3.55q-1.8,0-3.57.15c.15-3.13.29-6.26.41-9.36s.18-6.28.18-9.52V96.4c0-3.23-.06-6.42-.18-9.55m15.27,12.63A13.85,13.85,0,0,0,390,97.75a9.31,9.31,0,0,0,3.19-3.23,9.75,9.75,0,0,0,1.21-5.1,9.18,9.18,0,0,0-1.1-4.81,7.93,7.93,0,0,0-2.79-2.79,10.75,10.75,0,0,0-3.82-1.32,27.79,27.79,0,0,0-4.26-.33c-1.27,0-2.35,0-3.23.11s-1.66.16-2.35.25q-.15,3.52-.29,7t-.15,7V100h4a25.8,25.8,0,0,0,5.1-.51m-8.92,18.14q.14,3.67.29,7.41c.93.1,2,.19,3.31.26s2.57.11,3.89.11a12.86,12.86,0,0,0,4.52-.81,10.64,10.64,0,0,0,3.78-2.38,11.68,11.68,0,0,0,2.57-3.9,13.76,13.76,0,0,0,.95-5.25,10.53,10.53,0,0,0-1.13-5.17,8.06,8.06,0,0,0-3.28-3.16,15.77,15.77,0,0,0-5.1-1.58,46,46,0,0,0-6.64-.44h-3.31v7.49c0,2.49.05,5,.15,7.42M420.8,86.85q.18,4.7.18,9.54V109q0,4.86-.18,9.52c-.12,3.1-.26,6.23-.41,9.36q3.38-.15,6.69-.15H440.4q3.27,0,6.57.15v-4.19a31.44,31.44,0,0,1-4.14.55c-1.6.13-3.28.22-5.07.29s-3.61.12-5.47.12h-5.14c0-.93-.09-2.3-.11-4.11s0-4.12,0-6.91v-7.27c0-.78,0-1.43,0-1.94s0-1,0-1.43l3.56,0,4.77.07c1.69,0,3.38.09,5.07.19s3.16.22,4.44.36V99.18c-1.08.1-2.22.19-3.42.26l-3.92.22c-1.42.08-3,.14-4.7.19s-3.65.07-5.8.07c0-.93,0-2.3,0-4.11s0-3.67,0-5.59,0-3.42.11-4.84.14-2.91.18-4.48q3.6,0,6.17.11c1.72.08,3.3.16,4.74.26l4.11.29c1.3.1,2.73.2,4.3.29v-4.4c-2.21.1-4.39.18-6.54.26s-4.33.11-6.53.11-4.4,0-6.57-.11-4.38-.16-6.58-.26c.15,3.13.29,6.27.41,9.4m45.1.11c-.13-3.11-.26-6.28-.41-9.51,1.42.1,2.82.18,4.19.26s2.76.11,4.18.11,2.82-.06,4.19-.19,2.76-.18,4.19-.18a27.89,27.89,0,0,1,5.87.59A14.3,14.3,0,0,1,493,80a9.84,9.84,0,0,1,3.31,3.56,12.75,12.75,0,0,1-.37,11.57,14.9,14.9,0,0,1-3.85,4.19,18.73,18.73,0,0,1-4.89,2.56,24.3,24.3,0,0,1-4.73,1.22l2.42,3.08q1.55,2,3.45,4.37l4,5c1.37,1.75,2.69,3.41,4,5s2.47,3,3.6,4.37,2,2.32,2.72,3h-8.67q-1.1-1.55-3.34-4.63c-1.49-2-3.15-4.26-5-6.61s-3.66-4.68-5.54-7-3.61-4.3-5.18-5.91H472.1v5.36q0,4.84.19,9.55t.4,9.25h-7.2c.15-3,.28-6.12.41-9.25s.18-6.32.18-9.55V96.47q0-4.84-.18-9.51m8.44,14c.81,0,1.7.07,2.68.07a23.34,23.34,0,0,0,4.74-.51,13.59,13.59,0,0,0,4.51-1.8,10.84,10.84,0,0,0,3.42-3.45,10.11,10.11,0,0,0,1.36-5.47A9.5,9.5,0,0,0,490,85.05a8.49,8.49,0,0,0-2.75-3,10.62,10.62,0,0,0-3.67-1.5,19.39,19.39,0,0,0-3.89-.4c-1.72,0-3.14,0-4.26.11s-2.08.16-2.87.25c-.1,2.7-.19,5.36-.29,8s-.15,5.29-.15,7.93v4.18a15,15,0,0,0,2.24.3m78.24-17.19a19.47,19.47,0,0,1,2.75,2.65h.88l1.69-5.66c-.88-.44-1.88-.9-3-1.39A36.51,36.51,0,0,0,551,78a35.89,35.89,0,0,0-5.14-1.06,48.45,48.45,0,0,0-6.65-.41,37.19,37.19,0,0,0-11.78,1.77,25,25,0,0,0-9.07,5.14,22.92,22.92,0,0,0-5.8,8.26,28.45,28.45,0,0,0-2.06,11.12,30.16,30.16,0,0,0,2,11.39,21.77,21.77,0,0,0,5.65,8.22,23.06,23.06,0,0,0,8.92,4.89,41,41,0,0,0,11.79,1.57,36,36,0,0,0,4.73-.33c1.74-.22,3.48-.46,5.22-.73a45.35,45.35,0,0,0,4.92-1c1.54-.42,2.82-.82,3.85-1.21,0-1,0-2,0-3s0-2,0-3q0-6,.07-9.58c.05-2.43.12-4.2.22-5.33h-6.68c.1,1.57.18,3.21.26,4.92s.11,3.43.11,5.15c0,1.51,0,3,0,4.47s-.06,2.94-.11,4.41a11.33,11.33,0,0,1-2.31,1,24.77,24.77,0,0,1-2.94.73,30.34,30.34,0,0,1-3.27.44c-1.12.1-2.2.15-3.23.15a24.75,24.75,0,0,1-9.21-1.62,18.94,18.94,0,0,1-6.9-4.59,19.46,19.46,0,0,1-4.3-7.31,30,30,0,0,1-1.47-9.69,30.24,30.24,0,0,1,1.65-10.53,20.14,20.14,0,0,1,4.56-7.35,18.05,18.05,0,0,1,6.82-4.29,25.19,25.19,0,0,1,8.48-1.4,21.1,21.1,0,0,1,5.25.63,22.8,22.8,0,0,1,4.49,1.61,20.57,20.57,0,0,1,3.67,2.31m25.36,3.09q.19,4.7.19,9.54V109q0,4.86-.19,9.52c-.12,3.1-.25,6.23-.4,9.36q3.38-.15,6.68-.15h13.33q3.27,0,6.57.15v-4.19a31.61,31.61,0,0,1-4.15.55c-1.59.13-3.28.22-5.06.29s-3.61.12-5.47.12H584.3c0-.93-.09-2.3-.11-4.11s0-4.12,0-6.91v-7.27c0-.78,0-1.43,0-1.94s0-1,0-1.43l3.57,0,4.77.07c1.69,0,3.38.09,5.07.19s3.16.22,4.44.36V99.18c-1.08.1-2.22.19-3.42.26l-3.93.22c-1.42.08-3,.14-4.7.19s-3.64.07-5.8.07q0-1.4,0-4.11c0-1.81,0-3.67,0-5.59s0-3.42.11-4.84.14-2.91.18-4.48q3.6,0,6.17.11c1.72.08,3.29.16,4.74.26l4.11.29c1.3.1,2.73.2,4.3.29v-4.4c-2.21.1-4.38.18-6.54.26s-4.33.11-6.53.11-4.4,0-6.58-.11-4.37-.16-6.57-.26c.15,3.13.28,6.27.4,9.4m68.32,22q9.56,10.25,18,20h1v-2.42c0-1.18,0-2.56,0-4.15s0-3.3-.07-5.14,0-3.66-.08-5.47,0-3.55,0-5.21v-4.41c0-1.42.05-3.3.15-5.65s.21-4.75.33-7.2.25-4.75.37-6.91.23-3.76.33-4.84h-4.85q.38,6.47.48,13.77t.11,15v10q-3.37-3.39-7.9-8.19t-9.54-10.21q-5-5.4-10.14-11l-9.58-10.39h-1.17c.1,1.67.15,4.19.18,7.57s0,7.42,0,12.11c0,1.62,0,3.46-.07,5.51s-.11,4.16-.19,6.32-.17,4.31-.29,6.46-.23,4.15-.33,6-.21,3.41-.33,4.73-.24,2.23-.33,2.72h5.28c-.05-.39-.09-1.14-.14-2.24s-.1-2.39-.15-3.86-.1-3.06-.15-4.77-.08-3.4-.11-5.07,0-3.25-.07-4.77,0-2.79,0-3.82c0-4,0-7.09.08-9.4s.09-4.13.14-5.51q9.55,10.14,19.09,20.38M370,206.75q-.18,4.69-.41,9.25h7.2q-.22-4.56-.4-9.25c-.13-3.14-.18-6.32-.18-9.55v-6.39c0-.29.11-.44.36-.44s.49.2.88.59q1.17,1.17,3.64,4.07l5.51,6.54c2,2.42,4.11,4.93,6.24,7.53S397,214,398.71,216h8.45q-6.24-7-12.3-13.91t-12-13.63c1.32-1.51,3-3.29,5-5.32s4.06-4.1,6.24-6.21,4.35-4.15,6.5-6.16,4.09-3.75,5.8-5.22h-6.53q-2.58,2.94-5.36,6.06t-5.66,6.13q-2.87,3-5.69,5.8t-5.4,5c-.49.43-.83.66-1,.66s-.43-.2-.43-.59v-4c0-3.23.05-6.4.18-9.51s.25-6.28.4-9.51h-7.2q.22,4.84.41,9.51t.18,9.51V197.2q0,4.85-.18,9.55m45.48-27a23.2,23.2,0,0,1,5.65-8.26,24.26,24.26,0,0,1,8.7-5.14,35.85,35.85,0,0,1,22.25,0,24.26,24.26,0,0,1,8.7,5.14,23.22,23.22,0,0,1,5.66,8.26,31.65,31.65,0,0,1,0,22.25,22.69,22.69,0,0,1-14.36,13.29,38.33,38.33,0,0,1-22.25,0A22.64,22.64,0,0,1,415.52,202a31.65,31.65,0,0,1,0-22.25m44.24.59a20,20,0,0,0-4.3-7.34,17,17,0,0,0-6.46-4.3,23.74,23.74,0,0,0-16,0,17,17,0,0,0-6.46,4.3,20,20,0,0,0-4.3,7.34,36.8,36.8,0,0,0,0,21.07,20,20,0,0,0,4.3,7.34,17,17,0,0,0,6.46,4.3,23.59,23.59,0,0,0,16,0,17,17,0,0,0,6.46-4.3,20,20,0,0,0,4.3-7.34,36.8,36.8,0,0,0,0-21.07m38.57,4.51q-5.18-9.84-10.24-20.27h-1.25q-.6,5.88-1.4,12.38t-1.76,13.18q-1,6.69-2,13.29t-2,12.56h5.13c0-2,.13-4.47.37-7.53s.54-6.31.88-9.76.73-7,1.14-10.5.8-6.85,1.14-9.88h.15q4.85,9.69,9.65,19t9.22,18.54h.66q4.41-10,9.29-19.13t9.95-18.39h.15q1.17,9.54,2,18.73T531,216H538q-.88-6.09-1.62-12.3t-1.47-12.56q-.74-6.34-1.43-12.92t-1.5-13.63h-1c-1.22,2.26-2.55,4.68-4,7.27s-2.86,5.25-4.3,7.94l-4.26,8c-1.4,2.61-2.7,5-3.93,7.3l-3.23,6q-1.4,2.61-2.13,4-5.66-10.35-10.83-20.2m72.51,0q-5.18-9.84-10.24-20.27h-1.25q-.58,5.88-1.4,12.38t-1.75,13.18q-1,6.69-2,13.29t-2,12.56h5.14q0-2.94.37-7.53t.88-9.76c.34-3.46.72-7,1.14-10.5s.79-6.85,1.13-9.88H561q4.85,9.69,9.66,19t9.21,18.54h.66q4.41-10,9.29-19.13t9.95-18.39H600q1.17,9.54,2,18.73T603.56,216h6.9q-.88-6.09-1.62-12.3t-1.47-12.56q-.72-6.34-1.43-12.92t-1.5-13.63h-1q-1.85,3.39-4,7.27t-4.3,7.94q-2.16,4-4.25,8c-1.4,2.61-2.71,5-3.94,7.3l-3.23,6q-1.39,2.61-2.12,4-5.67-10.35-10.84-20.2m93.45-11.52q.08,5.66.08,16.08c0,1.51,0,3.18-.08,5a41.54,41.54,0,0,1-.51,5.43,24.87,24.87,0,0,1-1.43,5.22,14.19,14.19,0,0,1-2.76,4.4,13,13,0,0,1-4.51,3.09,17.43,17.43,0,0,1-6.79,1.18,20.81,20.81,0,0,1-6.91-1,12.93,12.93,0,0,1-4.63-2.72,11.85,11.85,0,0,1-2.82-4,22.07,22.07,0,0,1-1.44-4.85,36.93,36.93,0,0,1-.51-5.22c-.05-1.78-.07-3.51-.07-5.17q0-4.11.07-7.93t.22-7.13q.15-3.3.29-5.91c.1-1.73.2-3.14.3-4.22h-7c.1,2.2.2,4.9.3,8.08s.14,6.83.14,10.94c0,1.86-.06,3.68-.18,5.47s-.18,3.83-.18,6.13q0,10.8,5,15.79t16,5a25.93,25.93,0,0,0,8.85-1.39,16.83,16.83,0,0,0,6.49-4.12,18.32,18.32,0,0,0,4.08-6.6,26.46,26.46,0,0,0,1.51-8.81c0-2.69.12-5.48.22-8.34s.19-5.65.29-8.37.22-5.26.37-7.64.29-4.41.44-6.13h-5.21a77.54,77.54,0,0,1,.36,7.79m46.22,23.6q9.56,10.25,18,20h1v-2.42c0-1.17,0-2.56,0-4.15s0-3.3-.08-5.14,0-3.66-.07-5.47,0-3.55,0-5.21v-4.41c0-1.42.05-3.3.15-5.65s.2-4.75.33-7.2.24-4.75.37-6.9.23-3.77.33-4.85h-4.85q.36,6.47.48,13.77t.11,15v10q-3.39-3.39-7.9-8.19t-9.54-10.21q-5-5.4-10.14-10.94t-9.58-10.39H687.9q.14,2.49.18,7.56t0,12.12c0,1.61,0,3.45-.07,5.5s-.11,4.16-.18,6.32-.17,4.31-.3,6.46-.23,4.15-.33,6-.2,3.41-.32,4.73-.24,2.23-.34,2.72h5.29c-.05-.39-.1-1.14-.15-2.24s-.1-2.39-.14-3.86-.1-3.05-.15-4.77-.08-3.4-.11-5.07,0-3.25-.07-4.77,0-2.79,0-3.82q0-5.94.07-9.39c.05-2.31.1-4.14.15-5.52q9.54,10.14,19.09,20.38m39.68-22c.12,3.13.18,6.32.18,9.55v12.63q0,4.85-.18,9.51t-.41,9.36c2.26-.1,4.48-.15,6.69-.15H769.8q3.26,0,6.57.15v-4.18a35.71,35.71,0,0,1-4.15.55c-1.6.12-3.28.21-5.07.29s-3.61.11-5.47.11h-5.14c0-.93-.09-2.3-.11-4.11s0-4.11,0-6.91v-7.27c0-.78,0-1.43,0-1.94s0-1,0-1.43l3.56,0,4.77.08q2.54,0,5.07.18c1.69.1,3.16.22,4.44.37v-4.49c-1.08.11-2.22.19-3.41.27l-3.93.21c-1.42.08-3,.14-4.7.19s-3.65.07-5.8.07c0-.93,0-2.3,0-4.11s0-3.67,0-5.58,0-3.43.11-4.85.14-2.91.18-4.48c2.41,0,4.46,0,6.17.11s3.3.16,4.74.26l4.11.29,4.3.3v-4.41c-2.21.1-4.38.19-6.54.26s-4.33.11-6.53.11-4.4,0-6.57-.11-4.37-.16-6.58-.26c.15,3.13.29,6.27.41,9.4"/><circle id="Hvit" class="cls-2" cx="147" cy="147" r="122"/><circle id="Bakgrunn" class="cls-3" cx="147" cy="147" r="113"/><path id="Hvit-2" data-name="Hvit" class="cls-2" d="M147,262a114.71,114.71,0,0,1-96.26-52.15L61,197.73V147.2l-2.66-1.53a1,1,0,0,1-.47-.64,1,1,0,0,1,.14-.78l6-8.95v-4a.7.7,0,0,1,0-.25l.49-1.27-.69-.44a4,4,0,0,1-1-5.76L63,122h0V109a4,4,0,0,1,4-4h2V83.59l-4-4V68h41V79.59l-4,4V101h20V76.55a3.72,3.72,0,0,0-1.1-2.65l-2.31-2.31a1.74,1.74,0,0,0-.39-1.8l-7.08-7.08a.42.42,0,0,1,.17-.69l.71-.21V50h11V45h9v5h10V44h11v6h10V45h9v5h11V61.81l.71.21a.42.42,0,0,1,.17.69l-7.08,7.08a1.72,1.72,0,0,0-.39,1.79L174.1,73.9a3.78,3.78,0,0,0-1.1,2.65V101h20V83.59l-4-4V68h41V79.59l-4,4V105h2a4,4,0,0,1,4,4v14.35l.2.27a4,4,0,0,1-1,5.74l-.69.45.49,1.26a.7.7,0,0,1,.05.25v4l6,8.95a1,1,0,0,1,.14.78,1,1,0,0,1-.47.64L234,147.2v50.53l9.69,11.46A114.6,114.6,0,0,1,147,262Z"/><path id="Fjell" class="cls-4" d="M147,261a113.82,113.82,0,0,0,90.74-45c-5.08-3-13.37-5-22.74-5-12.65,0-21.41,3.16-26.87,7.12-4.28-2.82-11.69-4.69-20.13-4.69-7.44,0-14.08,1.45-18.48,3.73-5.38-3.24-14.47-4.81-26.08-2.25a65.72,65.72,0,0,0-8,2.31C108,214.67,95.82,213,82,213a135.64,135.64,0,0,0-26.24,2.33A113.82,113.82,0,0,0,147,261Zm-2-3a10.07,10.07,0,0,1,1-3c-2,0-4,3-4,3-1-2,1-6,1-6-3,1-5,5-5,5-1-3,2-7,2-7-3,1-7,6-7,6-1-3,4-10,4-10-5,2-9,9-9,9,0-5,4-11,4-11a29.14,29.14,0,0,0-9,10c0-5,5.62-11.83,5.62-11.83C123.24,243.34,118,252,118,252c0-6,6-12,6-12-4,1-10,9-10,9,0-5,6-11,6-11-6,2-12,10-12,10,0-5,6-10,6-10-5,1-11,8-11,8,0-3,5.32-8.1,5.32-8.1C103.63,238.81,97,245,97,245c0-2,5-7,5-7-4,0-10,4-10,4-2-2,3-4,3-4a35.37,35.37,0,0,0-9.25,1.3c7.11-5.2,20-6.84,33.63-3.5,14.72,3.6,26,11.95,29,20.53C148.38,256.33,145,259,145,258Zm-11.33-18.24.53.35L134,240ZM181,253c-2-1,0-4,0-4-3,0-5,4-5,4-2-2,0-6,0-6-3,1-5,7-5,7-1-3,1-9,1-9-3,1-7,9-7,9-1-3,4-11,4-11-5,1-8,10-8,10-1-3,3-11,3-11-4,2-6,8-6,8-1-4,3-10,3-10-5,2-8,8-8,8-1-4,3-9,3-9-4,1-7,6-7,6-1-2,1-6,1-6a6.83,6.83,0,0,0-4,4c-2-2,0-5,0-5a14.09,14.09,0,0,0-5,3,1.39,1.39,0,0,1,0-2c-1-1-3.3-.39-3.3-.39,5.46-3.57,15.73-4.33,26.63-1.41,9.09,2.44,16.52,6.87,20.44,11.65A9,9,0,0,1,181,253Zm27.74-13.85h0C207.46,237.45,204,237,204,237a12,12,0,0,1,1,4.24l-.23.13C203.45,238.59,200,236,200,236c2,3,1,7,1,7-2-5-9-9-9-9,2,3,2,9,2,9-1-6-8-8-8-8,3,3,3,9,3,9-2-4-7-8-7-8a13.38,13.38,0,0,1,1,5c-1-2-4-4-4-4a4.83,4.83,0,0,1,0,4,6.93,6.93,0,0,0-3-4,1,1,0,0,1-1,1c-2,0-1.16-2.57-1.16-2.57,3.56-2.08,9.25-3.43,15.66-3.43,9.7,0,17.73,3.09,19.24,7.13ZM215,214a51.24,51.24,0,0,1,16.46,2.46C229.92,219.92,222,227,222,227c-1-3,3-8,3-8-4,1-10,10-10,10-1-4,6-12,6-12-6,2-13,13-13,13-1-4,7-13,7-13-6,3-12,12-12,12,0-4,5-11,5-11-5,2-10,11-10,11-1-3,3-9,3-9-3,2-7,9-7,9-1-3,2-8,2-8-4,1-7,8-7,8-2-1,0-4,0-4-1.32,0-3.71,1.51-4.75,2.69C185.75,223.18,194.29,214,215,214Zm-47,2.43c7.91,0,14.13,1.72,17.69,3.72a15.24,15.24,0,0,0-4.42,6.85,8.22,8.22,0,0,0-2.27-6,9.36,9.36,0,0,1-1,7,11.6,11.6,0,0,0-4-9,17.62,17.62,0,0,1,.16,10.55C173.07,221.87,169,219,169,219a20.77,20.77,0,0,1,.27,11c-.39-5.65-4.27-11-4.27-11,.79,3.14.34,8.74.11,11-.47-4.65-4.11-9-4.11-9,1,3,0,8,0,8a16.85,16.85,0,0,0-4-8c.86,1.71-.48,4.15-.89,4.82a20.64,20.64,0,0,0-2.77-5.36,10.72,10.72,0,0,0-1.12-1.24A41.14,41.14,0,0,1,168,216.43Zm-43.91,1.41a58.13,58.13,0,0,1,12.26-1.41c8.55,0,12,3.89,13.65,5.57a15.79,15.79,0,0,1,3.94,8.2c-2.3-4.64-8.94-7.2-8.94-7.2a10.82,10.82,0,0,1,3,7c-3-6-12-10-12-10a17.33,17.33,0,0,1,5.84,10.19C139.68,225.39,131,221,131,221a17.86,17.86,0,0,1,6,10c-3-5-10-8-10-8a20.08,20.08,0,0,1,6.33,10.25c-5.59-7.43-11-9.31-11-9.31,3.14,2.15,5.21,6.79,6.1,9.14C122.74,225.94,117,225,117,225c4,3,6.89,9.14,6.89,9.14-4.11-4.86-11.44-7.85-11.44-7.85C115.89,228.57,118,233,118,233c-3-3-10.6-5-10.6-5,2.41,1.05,4.6,5,4.6,5s-4.8-2-6.64-2.46-3.84.85-3.81.59a5,5,0,0,1,1.33-2.71,26.86,26.86,0,0,1,8.42-6.15A54.75,54.75,0,0,1,124.09,217.84Zm-57.3-1.11c4.48-.45,9.57-.73,15.21-.73,12.63,0,22.5,1.39,29,3.05a38.63,38.63,0,0,0-6.78,4,9.16,9.16,0,0,1-.24-2,9.59,9.59,0,0,0-.9,2.94A18.65,18.65,0,0,0,101,226v-5a41.72,41.72,0,0,0-5,10c-1-5,1-11,1-11-3.88,3.88-5.52,12.69-5.61,13.21h0C89.78,228.46,92,219,92,219c-4,6-5,15-5,15-1-6,1-16,1-16-4,4-5,14-5,14-1-3,0-13,0-13-4,3-4,11-4,11-3-4-1-11-1-11-3,3-4.27,9.53-4.27,9.53a18.67,18.67,0,0,1-.13-9.08A15.46,15.46,0,0,0,70.28,226c-1.73-3.05-.28-7-.28-7-2,0-2,4-2,4S63.32,217.08,66.79,216.73Z"/><path id="Borg" class="cls-1" d="M143,143.5a2.05,2.05,0,0,1,2.05-2.05h.4v-.4a2.05,2.05,0,0,1,4.1,0v.4h.4a2.05,2.05,0,0,1,0,4.1h-.4v.4a2.05,2.05,0,0,1-4.1,0v-.4h-.4A2.05,2.05,0,0,1,143,143.5Zm16.43,22.78c0-.42.07-.85.07-1.28a12,12,0,0,0-24,0c0,.43,0,.86.07,1.28A11,11,0,0,0,127,177v37.25c1-.16,2-.29,3-.38V202h6a2,2,0,0,1,0,4c-.29,0-.68-.24-.93-.12a.22.22,0,0,0-.1.31,2.6,2.6,0,0,0,2,.81,3,3,0,0,0,2.18-5.05L143,201l-3.82-.95A3,3,0,0,0,137,195a2.6,2.6,0,0,0-2,.81.22.22,0,0,0,.1.31c.25.12.64-.12.93-.12a2,2,0,0,1,0,4h-6V182h6a2,2,0,0,1,0,4c-.29,0-.68-.24-.93-.12a.22.22,0,0,0-.1.31,2.6,2.6,0,0,0,2,.81,3,3,0,0,0,2.18-5.05L143,181l-3.82-.95A3,3,0,0,0,137,175a2.6,2.6,0,0,0-2,.81.22.22,0,0,0,.1.31c.25.12.64-.12.93-.12a2,2,0,0,1,0,4h-6v-3a8,8,0,0,1,6.27-7.81,12.94,12.94,0,0,1,2.23-.19v-4a9,9,0,0,1,7.5-8.86v59.35a21.36,21.36,0,0,1,3,1.38V156.14a9,9,0,0,1,7.5,8.86v4a12.94,12.94,0,0,1,2.23.19A8,8,0,0,1,165,177v3h-6a2,2,0,0,1,0-4c.29,0,.68.24.93.12a.22.22,0,0,0,.1-.31,2.6,2.6,0,0,0-2-.81,3,3,0,0,0-2.18,5.05L152,181l3.82.95A3,3,0,0,0,158,187a2.6,2.6,0,0,0,2-.81.22.22,0,0,0-.1-.31c-.25-.12-.64.12-.93.12a2,2,0,0,1,0-4h6v18h-6a2,2,0,0,1,0-4c.29,0,.68.24.93.12a.22.22,0,0,0,.1-.31,2.6,2.6,0,0,0-2-.81,3,3,0,0,0-2.18,5.05L152,201l3.82.95A3,3,0,0,0,158,207a2.6,2.6,0,0,0,2-.81.22.22,0,0,0-.1-.31c-.25-.12-.64.12-.93.12a2,2,0,0,1,0-4h6v11.51c1,0,2-.08,3-.08V177A11,11,0,0,0,159.43,166.28ZM228,181h2v-2l-9,1Zm-6,2,8,1v-2h-2Zm1-11h7v-2h-3Zm0-4h7v-2h-3Zm-1,29h8v-2h-4Zm0-4h8v-2h-4Zm-38.77-31.64,2.43-1.52a2.87,2.87,0,0,0,1.34-2.42V141a4,4,0,0,0-8,0v18A2.77,2.77,0,0,0,183.23,161.36ZM112,137a4,4,0,0,0-4,4v16.42a2.87,2.87,0,0,0,1.34,2.42l2.43,1.52A2.77,2.77,0,0,0,116,159V141A4,4,0,0,0,112,137Zm151,10a116.12,116.12,0,1,1-32.07-80H231v.08A115.58,115.58,0,0,1,263,147ZM231,71.42V80l-4,4v20h1a5,5,0,0,1,5,5v14a5,5,0,0,1-1.31,7.18l.19.5a1.67,1.67,0,0,1,.12.62V135l5.82,8.69a2,2,0,0,1-.67,2.85L235,147.78v49.58l7.93,9.37A113,113,0,0,0,231,71.42ZM175,173a3,3,0,1,0-3-3A3,3,0,0,0,175,173ZM173,166h3c-.63-8.19-8.59-20.21-11.1-23.81C161.46,137.34,151,125,147.58,125h-.16c-3.42,0-13.88,12.34-17.26,17.19-2.51,3.6-10.47,15.62-11.1,23.81h3c.88-15,21.06-36.94,25.38-36.94S172,151.89,173,166ZM123,170a3,3,0,1,0-3,3A3,3,0,0,0,123,170ZM63,199H75v-9.68L68,189l-2-2H82V176H66l3-2h6V164H66l2-2H84.72L63,149.5Zm46-23H98v11h11ZM96,187V176H84v11H96ZM77,174H89v-9.54l-.81-.46H77Zm28.57,0L91,165.62V174ZM77,199H89V190l-12-.54Zm14,0h12v-9H91Zm14,0h11v-9H105Zm11-12v-7l-5-2.88V187Zm0-9.2V172h-7v-5h-8v-4H94v-5H86v-4H79v-4H71v-5H63v-6l-3.07,4.62a1,1,0,0,0,.33,1.42l49.28,29H110v.27ZM64,123H75V110H64v13Zm3-54v8h6V69Zm0,11a1,1,0,0,0,1,1h34a1,1,0,0,0,0-2H68A1,1,0,0,0,67,80Zm24-3V69H80v8Zm14-8H99v8h6Zm13.71,1.29,3.7,3.71h50.18l2.77-2.77a1.18,1.18,0,0,1,0-1l.91-1.81L172,72h-.93l.93-2.42L170.07,72h-2l.63-3.37L166,72h-2l2-5h12.5l2.5-3H114l2.5,3H127l2,5h-2l-2.7-3.37.63,3.37h-2L121,69.58l.93,2.42H121l-2-2ZM181,52h-9V63h9Zm-27-1h-1V63h10V51Zm-12,0H132V63h10Zm-28,1V63h9V52Zm82,25V69h-6v8Zm-4,3a1,1,0,0,0,1,1h34a1,1,0,0,0,0-2H193A1,1,0,0,0,192,80Zm23-3V69H204v8Zm7-8v8h6V69Zm9,41H220v13h11V110Zm-16,12v-5H203v2l12,.12v.76L203,121v1Zm0-9-12,1v1l12,0ZM194,84v24h7l9.91,2H203v2l12,0v.21a4.2,4.2,0,0,1,4.21-4.21H225V84h-8v4h-.44a7.48,7.48,0,0,0-14.12,0H202V84Zm0,27h-6v13h12V111Zm-61-2,11,2h-5l-1,1,7,1-6,1-1,1,9.5,1,8.5-1-1-1-6-1,7-1-1-1h-6l13-2v-6.33l-4,.33-5-1,3-1h2V93.8l-4-.8,3-1h5V84.73L159,85l-4-2,3-1V76h-4v3h-.5a6.51,6.51,0,0,0-2.74-3.1,5,5,0,0,0-.56-.3l-.27-.11q-.28-.12-.57-.21a3.13,3.13,0,0,0-.44-.1l-.46-.11a6.62,6.62,0,0,0-1.92,0l-.46.11a3.13,3.13,0,0,0-.44.1,5.37,5.37,0,0,0-.56.21l-.28.11a5,5,0,0,0-.56.3A6.51,6.51,0,0,0,141.5,79H141V76h-4v6l3,1-4,2-3-.27V92h5l3,1-4,.8V101h2l3,1-5,1-4-.33Zm26,15h13V111H159Zm-19-7,3,1h9l3-1Zm32-17V76H159v6.08L170,83v1l-7,.64V92h7v1l-11,1v7h11v1l-6,.5V109h8Zm-49,0v9h8v-6.5l-6-.5v-1h11V94l-11-1V92h7V84.64L125,84V83l11-.92V76H123Zm0,11v13h13V111H123Zm-16,0H95v13h12Zm-15,3-12-1v2l12,0Zm-12,3v5H92v-1l-12-1.12v-.76L92,119v-2ZM70,84v24h5.79A4.2,4.2,0,0,1,80,112.21V112l12,0v-2H84.09L94,108h7V84H93v4h-.44a7.48,7.48,0,0,0-14.12,0H78V84Zm-7,42a1,1,0,0,0,1,1l6.88.3,58.84,2.49,4,.17c-1.25,1.34-2.51,2.78-3.74,4.29l-.12.15c-.57.71-1.13,1.42-1.68,2.15l-.14.18c-.66.87-1.31,1.75-1.94,2.66-.32.45-.68,1-1.06,1.55v-5.13a1.75,1.75,0,0,0-1.75-1.75h-2.82a1.74,1.74,0,0,0-1.71,1.41L118,139l-.09,0a6,6,0,0,0-11.86.22.93.93,0,0,1,0-.24,20.15,20.15,0,0,0-.86-4.46.73.73,0,0,0-.7-.54h-1.79a.72.72,0,0,0-.71.58,3.22,3.22,0,0,1-.94,1.66,4.41,4.41,0,0,0-1.23-2.34,4.47,4.47,0,0,0-3.2-1.33,4.52,4.52,0,0,0-2.87,1,4.49,4.49,0,0,0-3.67-1,4.68,4.68,0,0,0-2.61,1.39l0,0a4.38,4.38,0,0,0-1,1.68A11.56,11.56,0,0,1,86,133l-21-1.2V138l51,28h0c.57-8.74,8.26-20.67,11.65-25.53,8.06-11.55,17.52-18.47,19.88-18.47,2.74,0,11.66,6.92,19.72,18.47,3.39,4.86,11.08,16.79,11.65,25.53H179l51-28v-6.2L209,133a11.56,11.56,0,0,1-.34,2.66,4.38,4.38,0,0,0-1-1.68l0,0a4.68,4.68,0,0,0-2.61-1.39,4.49,4.49,0,0,0-3.67,1,4.52,4.52,0,0,0-2.87-1,4.47,4.47,0,0,0-3.2,1.33,4.41,4.41,0,0,0-1.23,2.34,3.22,3.22,0,0,1-.94-1.66.72.72,0,0,0-.71-.58h-1.79a.73.73,0,0,0-.7.54A20.15,20.15,0,0,0,189,139a.93.93,0,0,1-.05.24,6,6,0,0,0-11.86-.22l-.09,0-.72-3.59a1.74,1.74,0,0,0-1.71-1.41h-2.82a1.75,1.75,0,0,0-1.75,1.75v5.13c-.38-.57-.74-1.1-1.06-1.55-.63-.91-1.28-1.79-1.94-2.66l-.14-.18c-.55-.73-1.11-1.44-1.68-2.15l-.12-.15c-1.23-1.51-2.49-2.95-3.74-4.29l4-.17,58.84-2.49,6.88-.3a1,1,0,0,0-.07-2l-6.89.18-2.88.08-8.43.22-54.41,1.46c-1.12-1.08-2.22-2-3.28-2.91-3.07-2.49-5.76-4-7.51-4-1.56,0-4.51,1.49-7.67,4-1.06.86-2.16,1.83-3.28,2.91l-54.41-1.46-8.43-.22-2.88-.08L64,125A1,1,0,0,0,63,126Zm116,48v3.8l6-3.53V174h.46l49.28-29a1,1,0,0,0,.33-1.42L232,139v6h-8v5h-8v4h-7v4h-8v5h-7v4h-8v5h-7Zm39-10H206.81l-.81.46V174h12Zm-7,12H199v11h12Zm-14,11V176H186v11Zm-13-9.88L179,180v7h5ZM204,174v-8.38L189.43,174Zm-25,25h11v-9H179Zm13,0h12v-9H192Zm14,0h12v-9.59L206,190Zm14,0h12V149.5L210.28,162H227l2,2h-9v10h6l3,2H213v11h16l-2,2-7,.32ZM147,34A112.65,112.65,0,0,0,67.2,67H107V80l-4,4v16h18V76.55a2.72,2.72,0,0,0-.81-1.94l-2.31-2.31a1,1,0,0,1-.24-1,.72.72,0,0,0-.15-.77l-7.08-7.08a1.41,1.41,0,0,1,.59-2.34V49h11V44h11v5h8V43h13v6h8V44h11v5h11V61.07a1.41,1.41,0,0,1,.59,2.34l-7.08,7.08a.72.72,0,0,0-.15.77,1,1,0,0,1-.24,1l-2.31,2.31a2.72,2.72,0,0,0-.81,1.94V100h18V84l-4-4V67h38.8A112.65,112.65,0,0,0,147,34ZM34,147a112.42,112.42,0,0,0,17.5,60.41l8.5-10V147.78l-2.15-1.24a2,2,0,0,1-.67-2.85L63,135v-3.68a1.67,1.67,0,0,1,.12-.62l.19-.5A5,5,0,0,1,62,123h0V109a5,5,0,0,1,5-5h1V84l-4-4V70.33A112.58,112.58,0,0,0,34,147Zm206.9,62.88L234,202H179v12.58c-1-.22-2-.4-3-.56V175.5a1.5,1.5,0,0,0-3,0v38.16c-.66-.06-1.32-.11-2-.15V177a15.1,15.1,0,0,0-4.81-11,5.46,5.46,0,0,1,4.81,2.89V166c0-6.6-7.48-17.6-12.34-21.27A5.41,5.41,0,0,1,155,146a3.9,3.9,0,0,0,1-2.5,3.65,3.65,0,0,0-3.86-3.86h-.78v-.78a3.86,3.86,0,0,0-7.72,0v.78h-.78A3.65,3.65,0,0,0,139,143.5a3.9,3.9,0,0,0,1,2.5,5.44,5.44,0,0,1-3.61-1.23C131.52,148.61,124,160.21,124,166v2.89a5.46,5.46,0,0,1,4.81-2.89A15.1,15.1,0,0,0,124,177v37.8l-.56.11-1.44.35V175.5a1.5,1.5,0,0,0-3,0v40.56c-1,.3-2,.61-2.9.94H116V202H61l-7.46,8.53a113,113,0,0,0,187.36-.65ZM232,204h-4l-12,2h18Zm4,4H221l8,2h8Zm-15-49,9,1v-2h-4Zm5-3h4v-2h-1ZM69,158H65v2l9-1Zm-3-4H65v2h4Zm8,26-9-1v2h2Zm-7,2H65v2l8-1Zm1-12H65v2h7Zm0-4H65v2h7Zm-3,29v2h8l-4-2Zm4-4H65v2h8Zm-6,14-2,2H85l-17-2Zm-5,4,1,2,19-2H58Zm104-45,2,1c0-8-5-15-12-14C157.46,152.86,162,157,162,164Zm-19-13c-7-1-12,6-12,14l2-1C133,157,137.54,152.86,143,151Zm54.27-7,.16.16a1.53,1.53,0,0,0,2.15,0l1.88-1.88,1.8,1.8a1.52,1.52,0,0,0,2.16,0h0a1.53,1.53,0,0,0,0-2.15l-1.8-1.81,1.88-1.88a1.53,1.53,0,0,0,0-2.15l-.16-.16a1.53,1.53,0,0,0-2.15,0l-1.88,1.88L199.5,136a1.52,1.52,0,0,0-2.15,2.16l1.8,1.8-1.88,1.88A1.53,1.53,0,0,0,197.27,144ZM91.38,140.13l-1.8,1.81a1.53,1.53,0,0,0,0,2.15h0a1.52,1.52,0,0,0,2.16,0l1.8-1.8,1.88,1.88a1.53,1.53,0,0,0,2.15,0l.16-.16a1.53,1.53,0,0,0,0-2.15L95.85,140l1.8-1.8A1.52,1.52,0,0,0,95.5,136l-1.81,1.8-1.88-1.88a1.53,1.53,0,0,0-2.15,0l-.16.16a1.53,1.53,0,0,0,0,2.15Zm107,8.87a3.36,3.36,0,0,0,1.25-.25l1.28-.54a1.48,1.48,0,0,1,1.15,0l1.11.49a3.56,3.56,0,0,0,1.41.29c.93,0,3.45-.91,3.45-2a.79.79,0,0,0-.38-.57,4.51,4.51,0,0,1-6.16.22,4.51,4.51,0,0,1-6.07-.3,1,1,0,0,0-.39.65C195,148.38,197.48,149,198.35,149Zm-98.74-2.65a4.51,4.51,0,0,1-6.07.3,4.51,4.51,0,0,1-6.16-.22A.79.79,0,0,0,87,147c0,1.09,2.52,2,3.45,2a3.56,3.56,0,0,0,1.41-.29l1.11-.49a1.48,1.48,0,0,1,1.15,0l1.28.54a3.36,3.36,0,0,0,1.25.25c.87,0,3.35-.62,3.35-2A1,1,0,0,0,99.61,146.35ZM227,137h-4l-8,2h9Zm1-3h-4l-8,2h12ZM68,137l3,2h9l-8-2Zm3-3H67v2H79ZM215,91.5a5.5,5.5,0,0,0-11,0V106h11Zm-64-10a3.5,3.5,0,0,0-7,0V107h7ZM223,103v-2l-4,1Zm-53,4v-1h-4Zm0-2v-1l-4,1Zm0-9V94l-6,2Zm0-6V88l-4,1Zm0-3V85l-4,2Zm0-6V80h-7Zm0-3V77l-7,1Zm0,21V97l-6,2ZM66,111v2h6Zm0,8v2l6-2Zm0-4v2l6-1Zm163-2v-2l-6,2Zm0,8v-2h-6Zm0-4v-2l-6,1ZM125,106v1l4-1Zm0-2v1h4Zm0-10v2h6Zm0-6v2l4-1Zm0-3v2h4ZM115,53v2h4Zm0,6v2l4-2Zm0-3v2l4-1Zm18-3v2l5-1Zm0,8,5-1-5-1Zm0-3,6-1-6-1Zm13,9h-2l1,5Zm-4,5V67h-3l1,5Zm-4,0V67h-3l2,5Zm-3,0-1-5h-2l2,5Zm-3,0-2-5h-2l3,5Zm18-5h-2l1,5Zm4,0h-2v5h1Zm4,0h-2l-1,5h1Zm1,5,2-5h-2l-2,5Zm2,0,3-5h-2l-2,5Zm1-19-5,1,5,1Zm0,8V59l-5,1Zm0-5-6,1,6,1Zm18-3-4,2h4Zm0,6h-4l4,2Zm0-3-4,1,4,1ZM125,80v1l7-1Zm0-3v1h7Zm0,20v2h6Zm98,2V97h-4Zm-1-4h1V93h-4Zm1-4V89h-5l4,2Zm0-4V86h-4l2,1Zm-23,15-4-1v2Zm-4-5v2l4-2Zm4-4h-4v2h1Zm1-4h-5v2h1Zm-1-3h-4v1h2Zm26-12.63L224,74l2,1.37Zm0-3L224,72l2,.37Zm-34,5L194,74l-2-.63Zm0-3,2-.37-2-1.63ZM91,91.5a5.5,5.5,0,0,0-11,0V106H91ZM76,102l-4-1v2Zm-4-5v2l4-2Zm4-4H72v2h1Zm1-4H72v2h1Zm-1-3H72v1h2Zm23,17v-2l-4,1Zm0-4V97H95Zm-1-4h1V93H95Zm1-4V89H94l4,2Zm0-4V86H95l2,1ZM69,73.37v2L71,74Zm0-3v2L71,72Zm34,3L101,74l2,1.37Zm0-3L101,72l2,.37Z"/><path id="Gullfelt" class="cls-4" d="M147,0C65.94,0,0,65.94,0,147S65.94,294,147,294s147-65.94,147-147S228.06,0,147,0Zm0,266A119,119,0,1,1,266,147,119.13,119.13,0,0,1,147,266Z"/><g id="Latin"><path class="cls-2" d="M48.76,61.58c-.29-.08-.45,0-.34.3s.35.67-.47,1.73-4.16,2.65-4.52,2.78-.45.07-.28-.31c1.09-2.45,2.61-4,.58-6-1.73-1.65-4.3-.68-5.32.25a40.68,40.68,0,0,0-3.25,4.17c-1.09,1.52-2.36,3.44-2.73,4s-.22.72.39.45,1.91-.1,5.65,2.59,3.65,4.29,3.64,4.64.09.53.35.25,1.47-1.79,2.17-2.76,1.7-2.32,2-2.78-.09-.46-.57-.23-2.05-.3-4.1-1.72c-.2-.13-.12-.32.15-.37a24.85,24.85,0,0,0,4.62-.24c2.21-.39,3.81-.73,4.49-3.36.51-2-2.14-3.26-2.43-3.36M42,66.73A7,7,0,0,1,41.05,68c-.19.21-.35.16-.59,0-1.3-.85-3.46-2.57-3.74-2.73s-.34-.32-.13-.68A6,6,0,0,1,38,63a3.18,3.18,0,0,1,3.27.67c1.69,1.51,1,2.42.7,3.09"/><path class="cls-2" d="M24.64,96.29c-.18.25-.31.21-.33-.14a3.05,3.05,0,0,0-2.38-2.86,2.74,2.74,0,0,0-3.2,1.32,49.79,49.79,0,0,0-2.15,5.77c-.64,2-1.6,5.23-1.68,5.61s.21.43.44.19.62-1.41,6.18.41,4.91,3.53,5,3.84.29.5.49.06,1.47-4.06,1.92-5.43,1.67-4.81,1.68-6.37-.77-3.5-2.52-4c-2.17-.63-3.23,1.37-3.41,1.61M18.15,101c-.26-.12-.31-.25-.16-.6a7.42,7.42,0,0,1,1.06-2.5,2.47,2.47,0,0,1,3.7.72c.49,1-.48,3.24-.57,3.52s-.19.29-.49.2A22.27,22.27,0,0,1,18.15,101m10.24-.57a7.66,7.66,0,0,1-.55,3.42c-.06.26-.11.34-.4.3-1.24-.21-3.67-1-3.88-1a.34.34,0,0,1-.3-.46,15.75,15.75,0,0,1,1.18-3.22c1.4-1.51,3.81.07,3.95,1"/><path class="cls-2" d="M27.65,73.12c1.21,4.28-.43,3.47-2.29,7a7.16,7.16,0,0,0,2.75,9.78c3.71,1.91,7.72,1.26,9.9-2.8s.1-4.19,2.63-5.67c.6-.35.53-.69-.18-.58-.44.07-2.82-.52-6.3-2.37A18.37,18.37,0,0,1,28,72.83c-.29-.48-.52-.23-.38.29m9.57,11.36c-1.33,2.79-3.63,2.5-6,1.54-.29-.12-.38-.24-.26-.59s2.22-4.5,2.72-4.83a2.61,2.61,0,0,1,2.34,0,2.88,2.88,0,0,1,1.16,3.9m-7.38.33c-.13.22-.29.26-.62.09-1-.52-3-3.28-2.09-5.12a3.42,3.42,0,0,1,4.46-1.88c2.14,1.14-1.48,6.45-1.75,6.91"/><path class="cls-2" d="M80.77,272.72c4.18-1.5,3.49.18,7.13,1.8a7.14,7.14,0,0,0,9.55-3.43c1.65-3.83.73-7.79-3.47-9.68s-4.19.19-5.84-2.22c-.39-.58-.73-.48-.58.22.1.43-.31,2.85-1.91,6.45a18.75,18.75,0,0,1-5.2,6.51c-.46.32-.2.53.32.35m10.66-10.34c2.88,1.14,2.74,3.45,1.95,5.84-.11.3-.21.4-.57.3s-4.65-1.89-5-2.37a2.57,2.57,0,0,1-.18-2.33,2.88,2.88,0,0,1,3.81-1.44m.84,7.34c.23.12.28.27.13.61-.45,1-3.05,3.25-5,2.45a3.42,3.42,0,0,1-2.18-4.32c1-2.22,6.54,1,7,1.26"/><path class="cls-2" d="M71.82,28.81c-.76,4.38-1.88,2.94-5.08,5.31a7.17,7.17,0,0,0-1.75,10c2.52,3.33,6.42,4.47,10.14,1.76s1.9-3.74,4.82-4c.69-.06.78-.4.09-.61-.42-.12-2.32-1.69-4.66-4.85a18.72,18.72,0,0,1-3.1-7.74c0-.56-.36-.43-.46.1m3.72,14.38c-2.41,1.94-4.35.68-6-1.19-.22-.24-.25-.38,0-.64s3.94-3.11,4.53-3.19a2.62,2.62,0,0,1,2.12,1,2.87,2.87,0,0,1-.64,4m-6.79-2.9c-.22.15-.38.12-.6-.18-.66-.89-1.31-4.27.32-5.52a3.43,3.43,0,0,1,4.84.24c1.44,2-4.12,5.17-4.56,5.46"/><path class="cls-2" d="M8.55,124.43c2.68,3.55.86,3.39.4,7.34a7.15,7.15,0,0,0,6.1,8.11c4.16.44,7.65-1.61,8.22-6.19.55-4.43-1.43-3.94.39-6.24.44-.54.25-.84-.38-.48-.38.23-2.82.54-6.72.09a18.64,18.64,0,0,1-7.77-3c-.44-.34-.57,0-.24.41m12.74,7.15c-.2,2.8-2.24,3.3-4.53,3.26-.3,0-.41-.07-.41-.41a27.32,27.32,0,0,1,.7-5,2.38,2.38,0,0,1,2-.78,2.62,2.62,0,0,1,2.26,2.93m-6.59,2.65c0,.24-.16.32-.49.29-1-.12-3.65-1.78-3.47-3.65a3.11,3.11,0,0,1,3.17-3.06c2.19.25.87,5.95.79,6.42"/><path class="cls-2" d="M103.37,279c1.21,1.12,2.77,1.57,6,2.3,1.5.33,5.33,1.44,5.71,1.49s.53-.31.21-.6-1.05-1,0-5.89c1.2-5.34,2.39-5.33,2.72-5.49s.54-.35.09-.52-2.59-.72-5-1.36c-1.31-.34-4.82-1.58-6.48-1.07-2,.6-3.46,2.68-4.12,5.2-.74,2.85-.56,4.64.83,5.94m6.69-9.09a3.66,3.66,0,0,1,1.69.2c.32.08.38.24.41.5a33.15,33.15,0,0,1-1,4.69,25.21,25.21,0,0,1-1.59,4.47.48.48,0,0,1-.58.3,4.92,4.92,0,0,1-1.89-.74c-.51-.58-1-1.7-.07-5s2-4.09,3-4.38"/><path class="cls-2" d="M21.34,161.94c0,.49-.6,2.51-4,5a19.19,19.19,0,0,1-4.66,2.49,1,1,0,0,1-.82-.19c-.18-.16-2.16-1.88-2.42-2.23s-.52,0-.3.5c1.43,2.9,2,6.55,3,11.7.08.37.31.38.55,0,1.08-1.53,4.53-1,6.32-.66,4.9.83,5.79,1.89,6.08,2.13s.52.19.5-.2-.37-2.42-.52-3.27-.73-3.28-.84-3.65-.46-.36-.5,0-.91,1.37-3.47,1.27c-.3,0-.41-.1-.46-.38l-.62-3.55c-.06-.28-.08-.45.23-.58,3.13-1.19,3.26-.86,3.49-.66s.55.34.46-.13-.19-2.07-.5-3.67a43.35,43.35,0,0,0-1-4.26c-.2-.54-.52-.19-.53.3m-3.44,9.52c.11.32.54,2.59.59,2.87s.05.53-.29.54-3.29.2-3.65.2-.34,0-.45-.36-.46-1.18-.57-1.45-.14-.47.13-.62,3.39-1.27,3.62-1.35c.39-.15.51-.15.62.17"/><path class="cls-2" d="M190.88,267.07c.48-.11,2.58,0,5.82,2.67a18.79,18.79,0,0,1,3.54,3.92,1,1,0,0,1,0,.84c-.11.21-1.31,2.55-1.57,2.88s.16.5.55.18c2.47-2.09,5.87-3.54,10.63-5.72.35-.16.29-.39-.09-.55-1.74-.68-2-4.16-2.16-6-.37-4.95.44-6.07.6-6.4s.07-.55-.3-.44-2.27.94-3,1.3-3,1.48-3.35,1.69-.23.53.11.47,1.55.56,2.07,3.07c.06.3,0,.42-.26.54L200.14,267c-.26.13-.42.2-.62-.08-1.91-2.75-1.62-3-1.48-3.23s.19-.62-.24-.42-2,.69-3.44,1.37-3.41,1.67-3.89,2-.06.56.41.45M201,268.12c.28-.18,2.38-1.14,2.64-1.26s.5-.18.59.15,1,3.15,1.07,3.49.05.35-.24.53l-1.28.9c-.29.22-.41.25-.62,0s-2.05-3-2.18-3.18-.27-.46,0-.65"/><path class="cls-2" d="M8.56,152.39c-.15-2.45.47-5.08-2.61-7.59-.32-.26-.38-.71.16-.49a23,23,0,0,0,5.46,1.22c.44,0,.59.25.27.55A9.83,9.83,0,0,0,11,147a.89.89,0,0,0-.25.69c0,.34.12,2.06.14,2.45s.22.37.46.35,3.24-.34,4.78-.57c3.24-.48,4.42-1.38,4.55-1.85.2-.73.49-.66.63,0,.08.38.22,2.25.3,3.59s.06,3.51.09,3.89c0,.62-.21.68-.57.13s-1.75-1.1-4.69-1.17c-1.68,0-4.62-.11-4.86-.09s-.42.12-.41.41c.06,1.87.41,3.67,1.25,4.11.6.3.52.49.09.57s-3.34.53-3.67.7-.48-.12-.31-.42a2.53,2.53,0,0,0,.43-1.76c-.07-1.05-.24-3.11-.38-5.55"/><path class="cls-2" d="M17.12,194.88c-.84-2.3-1-5-4.69-6.51-.37-.16-.56-.57,0-.52a22.8,22.8,0,0,0,5.58-.41c.43-.08.64.08.42.46a7.23,7.23,0,0,0-.57,1.08.89.89,0,0,0-.05.73l.85,2.3c.12.31.31.29.54.21s3-1.26,4.41-1.92c3-1.4,3.83-2.6,3.82-3.09,0-.76.28-.77.59-.22.19.34.87,2.09,1.33,3.35s1.07,3.34,1.2,3.7c.22.59,0,.71-.51.29s-2-.55-4.82.23c-1.62.45-4.46,1.23-4.68,1.31s-.37.24-.28.51c.6,1.78,1.46,3.41,2.39,3.58.65.12.63.33.24.52s-3,1.47-3.3,1.72-.5,0-.42-.3a2.59,2.59,0,0,0-.1-1.81c-.36-1-1.12-2.91-2-5.21"/><path class="cls-2" d="M182.69,282.07c-2.36.67-5.07.63-6.85,4.18-.19.37-.61.52-.52-.05a22.73,22.73,0,0,0,0-5.59c-.06-.44.12-.64.49-.39a7.68,7.68,0,0,0,1,.65.83.83,0,0,0,.72.1l2.36-.67c.32-.09.32-.29.25-.52s-1-3.09-1.58-4.54c-1.17-3.06-2.3-4-2.79-4.05-.76,0-.74-.34-.17-.6.35-.16,2.15-.71,3.44-1.07s3.41-.82,3.78-.92c.6-.17.71.06.25.53s-.7,1.94-.13,4.82c.32,1.66.88,4.54.95,4.77s.2.39.48.31c1.81-.46,3.51-1.18,3.75-2.1.16-.65.37-.6.54-.2s1.24,3.14,1.47,3.43,0,.5-.34.39a2.51,2.51,0,0,0-1.81,0c-1,.29-3,.89-5.34,1.56"/><path class="cls-2" d="M223.21,263.93c-2,1.36-4.62,2.16-5.23,6.09-.06.4-.42.68-.51.1a23.06,23.06,0,0,0-1.7-5.32c-.19-.4-.08-.64.34-.52a9.12,9.12,0,0,0,1.18.31.92.92,0,0,0,.73-.14l2-1.36c.28-.18.21-.37.08-.57s-1.94-2.63-2.9-3.83c-2.06-2.56-3.43-3.12-3.91-3-.73.19-.81-.1-.34-.52.28-.27,1.82-1.34,2.94-2.08s3-1.83,3.31-2c.52-.35.69-.16.4.42s-.06,2.07,1.36,4.64c.82,1.47,2.24,4,2.38,4.24a.36.36,0,0,0,.56.14c1.58-1,3-2.21,2.91-3.15,0-.67.17-.7.45-.36s2.15,2.6,2.45,2.81.15.47-.2.47a2.59,2.59,0,0,0-1.73.52c-.88.59-2.57,1.78-4.6,3.14"/><path class="cls-2" d="M287.12,150.88c.1-3.5-1.47-7.15-7.37-7.34s-6.88,5-6.94,7.09S274,158,280,158.15s7-4.34,7.15-7.27m-12.83-.11c0-.57,1.56-2.26,5.59-2.13s5.76,1.81,5.74,2.29-1.79,2.16-5.73,2-5.61-1.61-5.6-2.19"/><path class="cls-2" d="M81.69,25.09l2.39-1.25a.76.76,0,0,1,.89,0c.27.18,3.21,2.59,4.64,3.86a26.63,26.63,0,0,0,4.31,3c.42.26.81.17.55-.29s-1.63-2.76-2.39-4c-2.15-3.6-3.31-4.06-3.75-4.06s-.87-.12-.34-.47a33.49,33.49,0,0,1,3.27-1.7A26.79,26.79,0,0,1,94,19c.41-.15.7,0,.39.34s-.93,1.49,1,5.71c1.38,2.93,2.73,4.89,3.21,5.06s.69.34.31.65a21.58,21.58,0,0,1-2,1.1c-1.19.61-2.41,1.12-2.63,1.24a.83.83,0,0,1-1,0,51.78,51.78,0,0,1-4.6-3.28c-1.93-1.58-3.59-3-4-3.25s-.7-.17-.42.33,1.56,2.73,2.32,4c2,3.38,3.06,3.71,3.7,3.76s.51.21.19.43-2.15,1.23-3.22,1.79S85,38,84.59,38.17s-.51,0-.23-.42.82-1.23-1.08-5.12c-2-4.06-2.72-5.39-3.79-5.53-.5-.06-.66-.29-.17-.61a21.87,21.87,0,0,1,2.37-1.4"/><path class="cls-2" d="M254.81,235.66l-1.78,2a.77.77,0,0,1-.84.31c-.32-.08-3.92-1.26-5.71-1.93a26.75,26.75,0,0,0-5.09-1.2c-.49-.1-.81.14-.41.47s2.51,2,3.69,2.9c3.31,2.59,4.54,2.6,5,2.45s.86-.21.49.31a35.63,35.63,0,0,1-2.43,2.76,28.93,28.93,0,0,1-2.19,2.06c-.34.29-.65.26-.49-.18s.33-1.72-3-4.95c-2.33-2.24-4.3-3.58-4.81-3.56s-.77-.08-.52-.5a20.27,20.27,0,0,1,1.48-1.75c.88-1,1.84-1.92,2-2.11a.84.84,0,0,1,.91-.38,53.5,53.5,0,0,1,5.47,1.41c2.36.77,4.41,1.47,4.87,1.6s.71-.1.27-.47-2.44-2-3.6-2.88c-3.13-2.42-4.19-2.36-4.8-2.17s-.55,0-.34-.34,1.56-1.92,2.36-2.83,1.8-1.9,2.13-2.2.47-.17.36.31c-.07.31-.32,1.45,2.85,4.39s4.48,4.05,5.53,3.79c.48-.12.72,0,.38.51a24.12,24.12,0,0,1-1.71,2.16"/><path class="cls-2" d="M65.25,253.66a7.51,7.51,0,0,1-10.44-1.11c-2.05-2.6-1.23-2.33-2.12-3.46a5.48,5.48,0,0,0-3.81-1.64c-.68-.08-.93-.53,0-.58a18.56,18.56,0,0,0,4.88-1.49c.41-.19.55,0,.52.51a8.63,8.63,0,0,0,1.32,4.83c1.2,1.51,4,1.22,6.59-.8s2.91-4.52,1.78-5.95-3.69-1.73-5.1-1.34-1.1,0-.42-.53A16,16,0,0,0,61,239.46c.5-.76.71-.81.84-.18s.55,1.44,2.06,2.29c3.53,2,7,7.61,1.37,12.09"/><path class="cls-2" d="M277.67,124.13a7.49,7.49,0,0,1,8.56,6.07c.52,3.27-.06,2.63.16,4.05a5.5,5.5,0,0,0,2.53,3.3c.55.39.55.91-.26.52a18.6,18.6,0,0,0-5-1.09c-.45,0-.48-.26-.21-.7a8.62,8.62,0,0,0,1.22-4.86c-.31-1.89-2.92-3-6.14-2.52s-4.75,2.52-4.47,4.32,2.38,3.31,3.8,3.67,1,.53.11.66a15.55,15.55,0,0,0-3.53,1.06c-.8.42-1,.35-.82-.26a3.52,3.52,0,0,0-.67-3c-2.11-3.45-2.4-10.07,4.71-11.21"/><path class="cls-2" d="M106.62,13.66c2-.68,4.24-.45,5.32-1.14a6.55,6.55,0,0,0,2.12-2.12c.2-.32.43-.24.38.08s.08,3.67.07,4.08-.29.35-.55.34-4.2-.62-6.76.39c-1.79.71-2.23,1.59-2,2.33.54,1.7,4.26.18,6.12-.05,2.86-.35,5,.44,5.72,2.67s-.84,5.3-4.79,6.64c-2.59.89-3.26-.06-4.9.5a2.11,2.11,0,0,0-1.41,1.39c0,.54-.51.73-.6.15A17.48,17.48,0,0,0,103,24.11c-.7-.77-.13-1,.51-.43s4.31,2.7,8.13,1.4c2.36-.8,2.66-2,2.38-2.83-.38-1.14-3.33-.85-5-.3-3.56,1.21-6.15-.19-6.93-2.46-1-3,2.55-5.15,4.54-5.83"/><path class="cls-2" d="M172.78,10.22c2.06.49,3.83,1.87,5.12,1.85a6.85,6.85,0,0,0,2.92-.67c.33-.17.48,0,.28.26s-1.87,3.16-2.11,3.5-.42.15-.63,0-3.25-2.76-6-3.25c-1.89-.34-2.73.18-2.92.92C169,14.56,173,15.23,174.7,16c2.61,1.22,4,3,3.44,5.3s-3.51,4.06-7.58,3.1c-2.67-.62-2.73-1.77-4.42-2.17a2.09,2.09,0,0,0-1.93.44c-.28.45-.82.34-.59-.19a17.49,17.49,0,0,0,.51-5.35c-.18-1,.41-.9.67-.1S167,21.62,171,22.54c2.43.57,3.33-.3,3.53-1.14.27-1.17-2.39-2.49-4.07-2.88-3.65-.86-5.11-3.41-4.56-5.75.72-3.06,4.88-3,6.93-2.55"/><path class="cls-2" d="M147,287c-2.12,0-4.16-.93-5.4-.62a6.44,6.44,0,0,0-2.69,1.32c-.29.24-.48.1-.34-.19s1.11-3.51,1.25-3.89.38-.24.62-.15,3.79,1.94,6.53,1.81c1.92-.1,2.63-.8,2.64-1.57,0-1.79-4-1.54-5.8-1.92-2.83-.58-4.57-2-4.57-4.36s2.5-4.76,6.68-4.76c2.73,0,3.06,1.11,4.8,1.11a2.07,2.07,0,0,0,1.77-.87c.18-.51.72-.53.63.05a17.14,17.14,0,0,0,.72,5.33c.41,1-.19,1-.63.24s-3.21-3.94-7.25-3.94c-2.49,0-3.16,1.06-3.16,1.93,0,1.19,2.88,1.86,4.6,1.86,3.76,0,5.77,2.16,5.77,4.57,0,3.13-4.06,4.05-6.17,4.05"/><path class="cls-2" d="M147.26,7.28a9.91,9.91,0,0,1,3.12.27c.53.14.51.26,0,.45s-1.18.89-1.52,3.1-.43,2.4-.33,2.49a9.82,9.82,0,0,0,2.64-.24c1.87-.24,2.7-.57,3.05-1.08s.45-.31.5,0a11.88,11.88,0,0,1,.19,2.61,6.41,6.41,0,0,1-.38,2.77c-.19.52-.34.43-.53,0a5.16,5.16,0,0,0-2.83-1.63,17.53,17.53,0,0,0-2.69-.29,10.1,10.1,0,0,0,.29,2.55c.28,1.82.86,3.12,1.44,3.21s.67.39.1.48a15.82,15.82,0,0,1-3,.2,12.16,12.16,0,0,1-3.22-.29c-.43-.15-.43-.24-.05-.44s1.2-1.2,1.49-3.12a10.31,10.31,0,0,0,.29-2.54c-.07-.07-.63-.19-2.83.48s-2.5,1-2.78,1.39-.49.53-.58,0a13,13,0,0,1-.15-2.64,8.28,8.28,0,0,1,.24-2.54c.14-.53.34-.48.49-.1s.47.67,2.68,1,2.76.17,2.83.1a6,6,0,0,0-.09-2.21c-.2-1.64-.73-2.9-1.54-3.19-.65-.24-.43-.46-.05-.51a12.33,12.33,0,0,1,3.22-.36"/><path class="cls-2" d="M125.09,9.62c1.8-.32,3.33-.48,3.72-.52s.53.25.17.46-1.47,1.29-.67,5.78c1,5.62,2.21,5.6,2.76,5.7s.7.36.06.57a29.9,29.9,0,0,1-3.52.78c-1.61.28-3.45.56-3.89.59s-.63-.23-.15-.56c.3-.2,1.62-.77.64-6.26-.86-4.82-2.08-5.15-2.69-5.22s-.45-.36,0-.48a33.28,33.28,0,0,1,3.6-.84"/><path class="cls-2" d="M23.7,210.66c-.8-1.64-1.37-3.08-1.51-3.43s.1-.58.39-.3,1.64,1.07,5.75-.91c5.14-2.49,4.79-3.66,4.73-4.21s.16-.78.54-.21a29.77,29.77,0,0,1,1.7,3.17c.71,1.47,1.48,3.17,1.63,3.59s0,.66-.5.29c-.28-.23-1.19-1.34-6.2,1.08-4.41,2.14-4.39,3.41-4.3,4s-.22.53-.45.16a33.43,33.43,0,0,1-1.78-3.24"/><path class="cls-2" d="M43.45,239.68c-1.25-1.33-2.23-2.53-2.46-2.83s-.09-.58.28-.4,1.89.53,5.2-2.6c4.16-3.91,3.48-4.92,3.26-5.43s-.08-.79.44-.37a30.14,30.14,0,0,1,2.58,2.52c1.12,1.19,2.36,2.58,2.63,2.94s.15.65-.38.42c-.34-.13-1.54-.92-5.59,2.9-3.57,3.36-3.17,4.56-2.9,5.11s0,.57-.38.29a33.37,33.37,0,0,1-2.68-2.55"/><path class="cls-2" d="M164.83,285.44c-1.81.17-3.35.2-3.74.2s-.51-.29-.14-.47,1.58-1.16,1.16-5.7c-.53-5.69-1.74-5.77-2.28-5.91s-.67-.42,0-.58a33.16,33.16,0,0,1,3.57-.47c1.63-.16,3.49-.28,3.93-.27s.61.28.1.57c-.31.18-1.67.63-1.16,6.18.45,4.88,1.64,5.31,2.24,5.43s.42.4,0,.48a34.33,34.33,0,0,1-3.67.54"/><path class="cls-2" d="M237.63,253.29c-1.37,1.21-2.6,2.13-2.91,2.36s-.58.06-.39-.3.6-1.86-2.4-5.3c-3.76-4.3-4.79-3.65-5.31-3.45s-.79.05-.35-.46a32.21,32.21,0,0,1,2.62-2.48c1.23-1.08,2.66-2.26,3-2.52s.65-.13.41.4c-.15.34-1,1.5,2.68,5.69,3.23,3.69,4.44,3.35,5,3.1s.57.07.28.39a33.72,33.72,0,0,1-2.66,2.57"/><path class="cls-2" d="M222.88,30.62c1.5,1,2.71,2,3,2.24s.2.55-.2.45-1.95-.13-4.54,3.63c-3.23,4.72-2.35,5.55-2,6s.25.75-.36.45a30.67,30.67,0,0,1-3-1.92c-1.34-.93-2.85-2-3.19-2.31s-.28-.61.28-.5c.36.06,1.7.58,4.86-4,2.77-4,2.13-5.13,1.75-5.61s-.07-.57.31-.37a35.84,35.84,0,0,1,3.16,1.94"/><path class="cls-2" d="M190.75,15.22c1.72.6,3.14,1.21,3.49,1.36s.35.48-.07.49-1.91.41-3.4,4.71c-1.87,5.4-.8,6-.36,6.33s.43.66-.23.53a32.23,32.23,0,0,1-3.46-1c-1.54-.54-3.28-1.2-3.68-1.38s-.44-.5.14-.56c.36,0,1.79.11,3.61-5.15,1.6-4.63.69-5.52.2-5.87s-.22-.54.2-.45,1.84.44,3.56,1"/><path class="cls-2" d="M50,57.13a7.06,7.06,0,0,1,.27-9.94c1.78-1.75,2.62-1.18,3.58-2.13a3.19,3.19,0,0,0,1-2.54c0-.49.1-.67.41-.13s1.26,2.25,1.47,2.7.17.5-.33.58a9.23,9.23,0,0,0-4.52,2.25c-1,.94-.78,3.46,1.63,5.92,2.73,2.78,5,3.24,6.26,2s2-3.14.8-4.41a1.3,1.3,0,0,0-2,.05c-.48.47-.63,1.42-.36,1.69s.21.46-.31.44-.93,0-1.91-1a2.92,2.92,0,0,1,.23-4,3.65,3.65,0,0,1,5.29,0c1.79,1.82,2.74,5-.69,8.35-4,3.93-7.78,3.25-10.83.12"/><path class="cls-2" d="M197.9,23.87a7.08,7.08,0,0,1,9.56-2.78c2.21,1.17,1.93,2.14,3.11,2.76a3.28,3.28,0,0,0,2.73.17c.46-.17.67-.11.25.34s-1.77,1.89-2.12,2.22-.43.32-.67-.13a9.07,9.07,0,0,0-3.51-3.62c-1.19-.63-3.53.31-5.15,3.36-1.81,3.44-1.56,5.75,0,6.57s3.61,1,4.44-.58a1.31,1.31,0,0,0-.65-1.87c-.59-.31-1.54-.16-1.72.18s-.37.35-.51-.16-.26-.9.39-2.13a2.92,2.92,0,0,1,3.86-1,3.65,3.65,0,0,1,1.57,5.06c-1.19,2.25-3.91,4.12-8.16,1.89-5-2.63-5.47-6.42-3.43-10.28"/><path class="cls-2" d="M249.93,53.66c1.18,1.33,1.82,2.05,2.07,2.4s.16.44-.24.38c-1.08-.17-3.36.85-5.9,3.11s-2.78,2.52-3,2.68a.33.33,0,0,0,0,.53l1.76,2a2.41,2.41,0,0,0,3,.29c.93-.63,1.11-1.43.92-1.72s-.11-.41.23-.32a3.19,3.19,0,0,1,1.69.93c.7.79,1.76,2.74,0,4.3s-3.92,1.23-5.79-1S241,63,240.25,62.21s-1.35-1.57-1.75-1.91-.4-.7.1-.54,1.1.31,4.61-3,4.37-4.33,4.12-5.19c-.12-.4,0-.55.35-.26s1.08,1.07,2.25,2.4"/><path class="cls-2" d="M235.14,40c1.35,1.16,2.08,1.78,2.37,2.1s.23.41-.18.4c-1.1,0-3.2,1.31-5.42,3.91s-2.39,2.88-2.55,3.06a.32.32,0,0,0,0,.52c.22.19,1.22,1,2,1.73a2.4,2.4,0,0,0,3-.13c.82-.75.89-1.57.67-1.83s-.17-.39.17-.35a3.16,3.16,0,0,1,1.81.69,2.94,2.94,0,0,1,.6,4.26c-1.53,1.79-3.72,1.76-5.87-.15s-4.25-3.68-5.08-4.4a24.76,24.76,0,0,0-2-1.64c-.55-.35-.49-.65,0-.55s1.13.15,4.13-3.67,3.74-4.89,3.37-5.71c-.17-.37,0-.54.31-.3s1.21.91,2.57,2.06"/><path class="cls-2" d="M36.19,230.87c-1.16-1.71-1.76-2.72-2-3.11s0-.45.26-.29a1.86,1.86,0,0,0,2.42-.71c1-1.29,3.45-4.58,4.19-5.8.23-.37.1-.5-.29-.47a35,35,0,0,0-7,1.65c-1.43.58-1.66,1.5-1.63,1.89s-.1.45-.33.19a31,31,0,0,1-2-2.66A35.08,35.08,0,0,1,28,218.47c-.21-.38-.09-.64.34-.35s2.35,1.08,8.59.79,7.1-.22,7.66-.25.51.24.35.52-4.61,8.68-5.24,10.15a13.74,13.74,0,0,0-1.18,3.93c.09.46-.07.57-.35.24a23.13,23.13,0,0,1-2-2.63"/><path class="cls-2" d="M268,217.14c-1.12,1.73-1.83,2.67-2.1,3s-.41.19-.38-.13a1.87,1.87,0,0,0-1.59-2c-1.59-.46-5.55-1.4-7-1.61-.42-.06-.49.11-.32.45a34.56,34.56,0,0,0,4.25,5.83c1.08,1.09,2,1,2.37.77s.45-.08.3.23a32.85,32.85,0,0,1-1.68,2.85c-.87,1.33-1.85,2.58-2.13,2.92s-.55.32-.45-.19.08-2.58-2.61-8.22-3-6.46-3.2-7,0-.56.34-.53,9.8.89,11.4.9a13.34,13.34,0,0,0,4.06-.45c.4-.25.56-.15.37.24a24.26,24.26,0,0,1-1.66,2.85"/><path class="cls-2" d="M260.77,66.35c1.14,1.72,1.73,2.74,1.93,3.12s0,.46-.26.3a1.87,1.87,0,0,0-2.43.69c-1.05,1.27-3.49,4.54-4.24,5.75-.23.37-.1.5.28.47a33.61,33.61,0,0,0,7-1.59c1.43-.56,1.67-1.48,1.64-1.86s.11-.45.34-.2,1.07,1.36,1.95,2.68a35.8,35.8,0,0,1,1.83,3.11c.2.38.08.64-.35.35s-2.33-1.1-8.58-.87-7.1.16-7.66.18-.5-.24-.35-.52,4.7-8.64,5.33-10.11a13.26,13.26,0,0,0,1.21-3.91c-.08-.46.08-.57.36-.24a23.15,23.15,0,0,1,2,2.65"/><path class="cls-2" d="M278.08,195a22.4,22.4,0,0,1-1.43,3.05c-.22.27-.27.25-.58.27s-4.62.2-4.94.22-.36.14-.17.4,3,3.7,3.19,3.94a.73.73,0,0,1,.13.83c-.1.33-.75,2-1,2.74s-1.19,2.73-1.37,3-.33.36-.39,0,0-1.34-5.11-3.16-5.55-1.28-6.06-.92-.57.23-.51-.17a22.44,22.44,0,0,1,1.19-3.34c.71-1.69,1.29-2.95,1.52-3.38s.42-.09.45.29c.06.86,2.22,2.29,4.92,3.42s3.53,1.52,3.94,1.65.48,0,.21-.38-4.19-5.39-4.61-6a.44.44,0,0,1,.28-.68c.56-.06,6.9-.68,7.33-.71s.47-.27.09-.48-1.77-.84-3.86-1.72c-3.19-1.33-5.26-1.55-5.88-.93-.37.37-.66.27-.52-.19s.72-2,1.28-3.37,1.15-2.53,1.38-3,.42-.34.48.1-.41,1.34,4.49,3.55c3.81,1.71,5.51,2.25,6.22,1.67.37-.3.54-.22.45.18a22.48,22.48,0,0,1-1.07,3"/><path class="cls-2" d="M285,168.62a22.32,22.32,0,0,1-.88,3.25c-.16.3-.21.29-.52.37l-4.82,1.08c-.37.09-.34.2-.1.42s3.58,3.12,3.83,3.33.31.36.26.79-.38,2.13-.54,2.88-.7,2.89-.82,3.21-.27.41-.39.09-.27-1.32-5.58-2.22-5.69-.29-6.14.15-.51.33-.52-.07a21.91,21.91,0,0,1,.59-3.51c.4-1.78.75-3.12.9-3.58s.41-.17.5.21c.2.83,2.58,1.86,5.44,2.5s3.74.88,4.17.94c.28,0,.46-.1.14-.42s-5.08-4.57-5.6-5.09a.45.45,0,0,1,.17-.73c.53-.15,6.67-1.87,7.08-2s.43-.35,0-.49-1.89-.53-4.1-1c-3.37-.76-5.45-.61-5.95.11-.3.42-.6.38-.55-.1s.36-2.13.68-3.53.68-2.71.83-3.16.36-.42.49,0-.17,1.39,5.05,2.71c4.05,1,5.82,1.26,6.42.56.3-.37.49-.32.46.1a21.88,21.88,0,0,1-.51,3.18"/><path class="cls-2" d="M272.36,85.71a22.9,22.9,0,0,1,1.18,3.15c0,.35,0,.37-.22.61s-3.08,3.44-3.29,3.68-.16.36.17.4,4.73.46,5.05.48.46.11.68.49.92,2,1.22,2.66,1.12,2.77,1.2,3.09,0,.49-.27.3-1-.91-5.82,1.44-4.8,3.07-4.91,3.69-.23.56-.47.25a23.84,23.84,0,0,1-1.55-3.2c-.71-1.68-1.21-3-1.35-3.45s.23-.37.52-.11c.65.55,3.19,0,5.88-1.13s3.56-1.46,3.94-1.66.32-.35-.12-.42-6.8-.77-7.52-.89a.45.45,0,0,1-.29-.69c.35-.43,4.34-5.4,4.62-5.72s.14-.53-.27-.41-1.86.68-3.94,1.55c-3.18,1.35-4.78,2.68-4.78,3.56,0,.52-.26.66-.5.24s-.94-2-1.51-3.27-1-2.6-1.16-3.06.06-.54.41-.27.67,1.23,5.68-.74c3.9-1.51,5.47-2.35,5.55-3.27,0-.47.22-.54.44-.19a22.65,22.65,0,0,1,1.43,2.89"/><path class="cls-2" d="M12.11,115a2,2,0,0,1,2.56-1.6,2.06,2.06,0,0,1,1.43,2.66,2,2,0,0,1-2.49,1.52,2.08,2.08,0,0,1-1.5-2.58"/><path class="cls-2" d="M20.38,117.14A2.1,2.1,0,0,1,23,115.4,2.18,2.18,0,0,1,24.51,118a2.11,2.11,0,1,1-4.13-.9"/><path class="cls-2" d="M70.91,263.53a2,2,0,0,1-.5-3,2.17,2.17,0,0,1,3.46,2.6,2.1,2.1,0,0,1-3,.38"/><path class="cls-2" d="M76.08,256.74a2.1,2.1,0,0,1-.6-3.07,2.18,2.18,0,0,1,3-.4,2.12,2.12,0,1,1-2.43,3.47"/><path class="cls-2" d="M126.52,285.13a2,2,0,0,1-1.83-2.4,2.16,2.16,0,0,1,4.27.67,2.1,2.1,0,0,1-2.44,1.73"/><path class="cls-2" d="M127.89,276.7a2.1,2.1,0,0,1-2-2.42,2.18,2.18,0,0,1,2.49-1.78,2.12,2.12,0,1,1-.51,4.2"/><path class="cls-2" d="M282,112.6a2,2,0,0,1-1.44,2.65,2.16,2.16,0,0,1-1.14-4.16A2.1,2.1,0,0,1,282,112.6"/><path class="cls-2" d="M273.76,114.81a2.09,2.09,0,0,1-1.4,2.79,2.18,2.18,0,0,1-2.64-1.54,2.12,2.12,0,1,1,4-1.25"/></g></g></g></g></svg>